<svg width="49" height="48" viewBox="0 0 49 48" fill="none" xmlns="http://www.w3.org/2000/svg">
<path d="M11.818 25.14C12.0639 25.0351 12.3283 24.9805 12.5957 24.9796C12.863 24.9786 13.1278 25.0312 13.3745 25.1344C13.6211 25.2375 13.8446 25.389 14.0316 25.58C14.2187 25.771 14.3656 25.9975 14.4636 26.2463C14.5616 26.495 14.6088 26.7608 14.6023 27.0281C14.5958 27.2954 14.5358 27.5586 14.4258 27.8023C14.3159 28.0459 14.1582 28.2651 13.962 28.4468C13.7659 28.6284 13.5354 28.769 13.284 28.86C11.9471 29.3868 10.7997 30.3037 9.99101 31.4915C9.18236 32.6793 8.74994 34.0831 8.75 35.52V39C8.75 39.5304 8.96071 40.0391 9.33579 40.4142C9.71086 40.7893 10.2196 41 10.75 41H26.75C27.2804 41 27.7891 40.7893 28.1642 40.4142C28.5393 40.0391 28.75 39.5304 28.75 39V35.706C28.7502 34.223 28.2997 32.7748 27.4582 31.5537C26.6167 30.3325 25.4239 29.3959 24.038 28.868C23.7851 28.7802 23.5524 28.6426 23.3536 28.4632C23.1549 28.2838 22.9942 28.0664 22.8811 27.8237C22.7679 27.5811 22.7046 27.3182 22.695 27.0507C22.6853 26.7831 22.7295 26.5164 22.8248 26.2662C22.9202 26.0161 23.0648 25.7876 23.2501 25.5943C23.4354 25.4011 23.6576 25.247 23.9035 25.1413C24.1494 25.0355 24.4141 24.9802 24.6818 24.9786C24.9495 24.977 25.2148 25.0292 25.462 25.132C27.6052 25.9484 29.4498 27.3967 30.7513 29.285C32.0528 31.1733 32.7498 33.4126 32.75 35.706V39C32.75 40.5913 32.1179 42.1174 30.9926 43.2426C29.8674 44.3679 28.3413 45 26.75 45H10.75C9.1587 45 7.63258 44.3679 6.50736 43.2426C5.38214 42.1174 4.75 40.5913 4.75 39V35.52C4.75028 33.2803 5.42455 31.0925 6.68512 29.2413C7.94569 27.39 9.7342 25.961 11.818 25.14V25.14ZM18.75 5C20.8717 5 22.9066 5.84285 24.4069 7.34315C25.9071 8.84344 26.75 10.8783 26.75 13V17C26.75 19.1217 25.9071 21.1566 24.4069 22.6569C22.9066 24.1571 20.8717 25 18.75 25C16.6283 25 14.5934 24.1571 13.0931 22.6569C11.5929 21.1566 10.75 19.1217 10.75 17V13C10.75 10.8783 11.5929 8.84344 13.0931 7.34315C14.5934 5.84285 16.6283 5 18.75 5V5ZM18.75 9C17.6891 9 16.6717 9.42143 15.9216 10.1716C15.1714 10.9217 14.75 11.9391 14.75 13V17C14.75 18.0609 15.1714 19.0783 15.9216 19.8284C16.6717 20.5786 17.6891 21 18.75 21C19.8109 21 20.8283 20.5786 21.5784 19.8284C22.3286 19.0783 22.75 18.0609 22.75 17V13C22.75 11.9391 22.3286 10.9217 21.5784 10.1716C20.8283 9.42143 19.8109 9 18.75 9ZM36.75 43C36.2196 43 35.7109 42.7893 35.3358 42.4142C34.9607 42.0391 34.75 41.5304 34.75 41C34.75 40.4696 34.9607 39.9609 35.3358 39.5858C35.7109 39.2107 36.2196 39 36.75 39H38.75C39.2804 39 39.7891 38.7893 40.1642 38.4142C40.5393 38.0391 40.75 37.5304 40.75 37V33.324C40.7499 31.9023 40.3025 30.5167 39.4712 29.3634C38.6399 28.2101 37.4667 27.3476 36.118 26.898C35.8688 26.815 35.6383 26.6837 35.4398 26.5117C35.2413 26.3396 35.0786 26.1301 34.961 25.8952C34.8435 25.6603 34.7733 25.4045 34.7546 25.1424C34.7359 24.8804 34.769 24.6172 34.852 24.368C34.935 24.1188 35.0663 23.8883 35.2383 23.6898C35.4104 23.4913 35.6199 23.3286 35.8548 23.211C36.0897 23.0935 36.3455 23.0233 36.6076 23.0046C36.8696 22.9859 37.1328 23.019 37.382 23.102C39.5276 23.8169 41.3938 25.1889 42.7162 27.0236C44.0386 28.8582 44.7501 31.0624 44.75 33.324V37C44.75 38.5913 44.1179 40.1174 42.9926 41.2426C41.8674 42.3679 40.3413 43 38.75 43H36.75ZM30.75 7C30.2196 7 29.7109 6.78929 29.3358 6.41421C28.9607 6.03914 28.75 5.53043 28.75 5C28.75 4.46957 28.9607 3.96086 29.3358 3.58579C29.7109 3.21071 30.2196 3 30.75 3C32.8717 3 34.9066 3.84285 36.4069 5.34315C37.9071 6.84344 38.75 8.87827 38.75 11V15C38.75 17.1217 37.9071 19.1566 36.4069 20.6569C34.9066 22.1571 32.8717 23 30.75 23C30.2196 23 29.7109 22.7893 29.3358 22.4142C28.9607 22.0391 28.75 21.5304 28.75 21C28.75 20.4696 28.9607 19.9609 29.3358 19.5858C29.7109 19.2107 30.2196 19 30.75 19C31.8109 19 32.8283 18.5786 33.5784 17.8284C34.3286 17.0783 34.75 16.0609 34.75 15V11C34.75 9.93913 34.3286 8.92172 33.5784 8.17157C32.8283 7.42143 31.8109 7 30.75 7Z" fill="#C1C7CD"/>
</svg>
