<svg width="49" height="48" viewBox="0 0 49 48" fill="none" xmlns="http://www.w3.org/2000/svg">
<path d="M24.25 44C13.204 44 4.25 35.046 4.25 24C4.25 12.954 13.204 4 24.25 4C35.296 4 44.25 12.954 44.25 24C44.25 35.046 35.296 44 24.25 44ZM24.25 40C28.4935 40 32.5631 38.3143 35.5637 35.3137C38.5643 32.3131 40.25 28.2435 40.25 24C40.25 19.7565 38.5643 15.6869 35.5637 12.6863C32.5631 9.68571 28.4935 8 24.25 8C20.0065 8 15.9369 9.68571 12.9363 12.6863C9.93571 15.6869 8.25 19.7565 8.25 24C8.25 28.2435 9.93571 32.3131 12.9363 35.3137C15.9369 38.3143 20.0065 40 24.25 40V40ZM16.41 30.788C16.3065 30.5464 16.2516 30.2867 16.2485 30.0239C16.2454 29.761 16.294 29.5002 16.3917 29.2561C16.4894 29.0121 16.6342 28.7897 16.8178 28.6016C17.0015 28.4135 17.2204 28.2635 17.462 28.16C17.7036 28.0565 17.9633 28.0016 18.2261 27.9985C18.489 27.9954 18.7498 28.044 18.9939 28.1417C19.2379 28.2394 19.4603 28.3842 19.6484 28.5678C19.8365 28.7515 19.9865 28.9704 20.09 29.212C20.4396 30.0254 21.02 30.7184 21.7594 31.2054C22.4987 31.6924 23.3647 31.9519 24.25 31.9519C25.1353 31.9519 26.0013 31.6924 26.7406 31.2054C27.48 30.7184 28.0604 30.0254 28.41 29.212C28.5135 28.9704 28.6635 28.7515 28.8516 28.5678C29.0397 28.3842 29.2621 28.2394 29.5061 28.1417C29.7502 28.044 30.011 27.9954 30.2739 27.9985C30.5367 28.0016 30.7964 28.0565 31.038 28.16C31.2796 28.2635 31.4985 28.4135 31.6822 28.6016C31.8658 28.7897 32.0106 29.0121 32.1083 29.2561C32.206 29.5002 32.2546 29.761 32.2515 30.0239C32.2484 30.2867 32.1935 30.5464 32.09 30.788C31.433 32.3229 30.3399 33.6312 28.9462 34.5507C27.5525 35.4701 25.9196 35.9602 24.25 35.9602C22.5804 35.9602 20.9475 35.4701 19.5538 34.5507C18.1601 33.6312 17.067 32.3229 16.41 30.788V30.788ZM18.25 16C18.7804 16 19.2891 16.2107 19.6642 16.5858C20.0393 16.9609 20.25 17.4696 20.25 18V22C20.25 22.5304 20.0393 23.0391 19.6642 23.4142C19.2891 23.7893 18.7804 24 18.25 24C17.7196 24 17.2109 23.7893 16.8358 23.4142C16.4607 23.0391 16.25 22.5304 16.25 22V18C16.25 17.4696 16.4607 16.9609 16.8358 16.5858C17.2109 16.2107 17.7196 16 18.25 16V16ZM30.25 16C30.7804 16 31.2891 16.2107 31.6642 16.5858C32.0393 16.9609 32.25 17.4696 32.25 18V22C32.25 22.5304 32.0393 23.0391 31.6642 23.4142C31.2891 23.7893 30.7804 24 30.25 24C29.7196 24 29.2109 23.7893 28.8358 23.4142C28.4607 23.0391 28.25 22.5304 28.25 22V18C28.25 17.4696 28.4607 16.9609 28.8358 16.5858C29.2109 16.2107 29.7196 16 30.25 16V16Z" fill="#C1C7CD"/>
</svg>
