<svg width="49" height="48" viewBox="0 0 49 48" fill="none" xmlns="http://www.w3.org/2000/svg">
<path d="M12.766 17.768L24.19 37.954L35.426 18.294C32.766 18.084 30.002 17.388 26.942 16.31C26.152 16.03 25.746 15.968 25.382 16.014C25.074 16.054 21.936 17.152 20.096 17.618C17.774 18.206 15.328 18.252 12.766 17.768V17.768ZM9.94602 12.788C13.35 14.128 16.394 14.428 19.114 13.74C20.59 13.366 24.07 12.148 24.88 12.046C25.938 11.912 26.94 12.066 28.272 12.536C31.82 13.788 34.864 14.448 37.678 14.354L39.452 11.25C34.65 9.09637 29.4449 7.98853 24.182 8C18.9678 7.98898 13.8098 9.0766 9.04402 11.192L9.94602 12.786V12.788ZM5.33402 8.536C11.164 5.53964 17.6272 3.9842 24.182 4C30.906 4 37.394 5.6 43.174 8.612C43.4127 8.73641 43.6238 8.90772 43.7947 9.11567C43.9657 9.32362 44.0928 9.56393 44.1686 9.8222C44.2445 10.0805 44.2674 10.3514 44.236 10.6187C44.2046 10.8861 44.1196 11.1443 43.986 11.378L25.918 42.992C25.7426 43.2984 25.4892 43.553 25.1835 43.7297C24.8778 43.9065 24.5308 43.9992 24.1777 43.9984C23.8246 43.9976 23.478 43.9033 23.1731 43.7251C22.8683 43.5469 22.616 43.2912 22.442 42.984L4.51002 11.3C4.37786 11.0658 4.29428 10.8074 4.26427 10.5402C4.23426 10.273 4.25843 10.0025 4.33535 9.74485C4.41228 9.4872 4.54036 9.24771 4.71195 9.04069C4.88354 8.83367 5.09511 8.66338 5.33402 8.54V8.536ZM20.25 24C19.7196 24 19.2109 23.7893 18.8358 23.4142C18.4607 23.0391 18.25 22.5304 18.25 22C18.25 21.4696 18.4607 20.9609 18.8358 20.5858C19.2109 20.2107 19.7196 20 20.25 20C20.7804 20 21.2892 20.2107 21.6642 20.5858C22.0393 20.9609 22.25 21.4696 22.25 22C22.25 22.5304 22.0393 23.0391 21.6642 23.4142C21.2892 23.7893 20.7804 24 20.25 24V24ZM26.25 30C25.7196 30 25.2109 29.7893 24.8358 29.4142C24.4607 29.0391 24.25 28.5304 24.25 28C24.25 27.4696 24.4607 26.9609 24.8358 26.5858C25.2109 26.2107 25.7196 26 26.25 26C26.7804 26 27.2892 26.2107 27.6642 26.5858C28.0393 26.9609 28.25 27.4696 28.25 28C28.25 28.5304 28.0393 29.0391 27.6642 29.4142C27.2892 29.7893 26.7804 30 26.25 30Z" fill="#C1C7CD"/>
</svg>
