<svg width="536" height="396" viewBox="0 0 536 396" fill="none" xmlns="http://www.w3.org/2000/svg">
<rect x="0.5" y="0.5" width="534.192" height="395" fill="white"/>
<rect x="0.5" y="0.5" width="534.192" height="395" stroke="#DDE1E6"/>
<path d="M27.5664 19.2031V32H24.9297V21.2686H19.7881V32H17.1514V19.2031H27.5664ZM32.5322 30.9277L35.0547 22.4902H37.7705L33.9473 33.4326C33.8652 33.6729 33.7539 33.9307 33.6133 34.2061C33.4785 34.4814 33.2939 34.7422 33.0596 34.9883C32.8311 35.2402 32.541 35.4453 32.1895 35.6035C31.8438 35.7617 31.4189 35.8408 30.915 35.8408C30.6748 35.8408 30.4785 35.8262 30.3262 35.7969C30.1738 35.7676 29.9922 35.7266 29.7812 35.6738V33.8193C29.8457 33.8193 29.9131 33.8193 29.9834 33.8193C30.0537 33.8252 30.1211 33.8281 30.1855 33.8281C30.5195 33.8281 30.792 33.79 31.0029 33.7139C31.2139 33.6377 31.3838 33.5205 31.5127 33.3623C31.6416 33.21 31.7441 33.0107 31.8203 32.7646L32.5322 30.9277ZM31.4775 22.4902L33.543 29.3809L33.9033 32.0615L32.1807 32.2461L28.7617 22.4902H31.4775ZM44.6084 18.3066H46.6562C46.6562 18.7812 46.5977 19.1885 46.4805 19.5283C46.3633 19.8623 46.1758 20.1494 45.918 20.3896C45.6602 20.624 45.3145 20.8232 44.8809 20.9873C44.4473 21.1514 43.9111 21.292 43.2725 21.4092C42.7803 21.5088 42.3525 21.6729 41.9893 21.9014C41.6318 22.1299 41.3359 22.4434 41.1016 22.8418C40.873 23.2344 40.709 23.7324 40.6094 24.3359C40.5098 24.9336 40.4746 25.6543 40.5039 26.498V26.9199L38.5352 27.1924V26.7705C38.541 25.6221 38.6436 24.623 38.8428 23.7734C39.0479 22.9238 39.3379 22.209 39.7129 21.6289C40.0879 21.043 40.5391 20.5771 41.0664 20.2314C41.5938 19.8799 42.1797 19.6338 42.8242 19.4932C43.2578 19.3994 43.6035 19.3086 43.8613 19.2207C44.125 19.127 44.3154 19.0098 44.4326 18.8691C44.5498 18.7285 44.6084 18.541 44.6084 18.3066ZM43.501 23.0264C44.1455 23.0264 44.7168 23.1377 45.2148 23.3604C45.7129 23.5771 46.1318 23.8848 46.4717 24.2832C46.8115 24.6816 47.0693 25.1504 47.2451 25.6895C47.4209 26.2285 47.5088 26.8174 47.5088 27.4561V27.6406C47.5088 28.291 47.4092 28.8945 47.21 29.4512C47.0166 30.002 46.7295 30.4824 46.3486 30.8926C45.9678 31.3027 45.499 31.6221 44.9424 31.8506C44.3857 32.0732 43.75 32.1846 43.0352 32.1846C42.3145 32.1846 41.6729 32.0645 41.1104 31.8242C40.5537 31.5781 40.082 31.2354 39.6953 30.7959C39.3145 30.3506 39.0244 29.832 38.8252 29.2402C38.6318 28.6426 38.5352 27.9922 38.5352 27.2891V27.0957C38.5352 26.9961 38.5791 26.8994 38.667 26.8057C38.7607 26.7061 38.8691 26.5947 38.9922 26.4717C39.1211 26.3486 39.2354 26.1934 39.335 26.0059C39.6865 25.3555 40.0703 24.8105 40.4863 24.3711C40.9023 23.9258 41.3564 23.5918 41.8486 23.3691C42.3467 23.1406 42.8975 23.0264 43.501 23.0264ZM43.0176 25.0039C42.543 25.0039 42.1621 25.1182 41.875 25.3467C41.5879 25.5693 41.3799 25.8682 41.251 26.2432C41.1279 26.6123 41.0664 27.0166 41.0664 27.4561V27.6406C41.0664 27.998 41.1016 28.332 41.1719 28.6426C41.2422 28.9473 41.3535 29.2197 41.5059 29.46C41.6582 29.6943 41.8604 29.8789 42.1123 30.0137C42.3643 30.1426 42.6719 30.207 43.0352 30.207C43.3867 30.207 43.6855 30.1426 43.9316 30.0137C44.1836 29.8789 44.3857 29.6943 44.5381 29.46C44.6904 29.2197 44.8018 28.9473 44.8721 28.6426C44.9424 28.332 44.9775 27.998 44.9775 27.6406V27.4561C44.9775 27.1221 44.9424 26.8086 44.8721 26.5156C44.8018 26.2168 44.6904 25.9561 44.5381 25.7334C44.3857 25.5049 44.1836 25.3262 43.9316 25.1973C43.6797 25.0684 43.375 25.0039 43.0176 25.0039ZM55.4453 22.4902V24.4766H50.7695V22.4902H55.4453ZM57.2998 22.4902V32H54.7686V22.4902H57.2998ZM50.1367 22.4902H52.624L52.3691 27.2891C52.334 27.9746 52.2607 28.5781 52.1494 29.0996C52.0381 29.6211 51.8887 30.0664 51.7012 30.4355C51.5195 30.8047 51.2998 31.1064 51.042 31.3408C50.79 31.5693 50.4941 31.7363 50.1543 31.8418C49.8203 31.9473 49.4512 32 49.0469 32H48.2734L48.2471 30.0049L48.5723 29.9697C48.7598 29.9521 48.9238 29.8994 49.0645 29.8115C49.2109 29.7178 49.334 29.5859 49.4336 29.416C49.5391 29.2402 49.627 29.0205 49.6973 28.7568C49.7676 28.4873 49.8232 28.1709 49.8643 27.8076C49.9111 27.4443 49.9434 27.0254 49.9609 26.5508L50.1367 22.4902ZM61.7822 28.4668L64.9727 22.4902H67.5039V32H64.9727V26.0146L61.7822 32H59.251V22.4902H61.7822V28.4668ZM72.1533 22.4902V32H69.6221V22.4902H72.1533ZM78.332 22.4902L74.2363 28.4404H71.7051L71.3975 26.1025H73.0762L75.124 22.4902H78.332ZM75.2383 32L72.9004 27.9834L75.1064 26.7617L78.6309 32H75.2383ZM84.7129 29.8555V25.6191C84.7129 25.3145 84.6631 25.0537 84.5635 24.8369C84.4639 24.6143 84.3086 24.4414 84.0977 24.3184C83.8926 24.1953 83.626 24.1338 83.2979 24.1338C83.0166 24.1338 82.7734 24.1836 82.5684 24.2832C82.3633 24.377 82.2051 24.5146 82.0938 24.6963C81.9824 24.8721 81.9268 25.0801 81.9268 25.3203H79.3955C79.3955 24.916 79.4893 24.5322 79.6768 24.1689C79.8643 23.8057 80.1367 23.4863 80.4941 23.2109C80.8516 22.9297 81.2764 22.71 81.7686 22.5518C82.2666 22.3936 82.8232 22.3145 83.4385 22.3145C84.1768 22.3145 84.833 22.4375 85.4072 22.6836C85.9814 22.9297 86.4326 23.2988 86.7607 23.791C87.0947 24.2832 87.2617 24.8984 87.2617 25.6367V29.7061C87.2617 30.2275 87.2939 30.6553 87.3584 30.9893C87.4229 31.3174 87.5166 31.6045 87.6396 31.8506V32H85.082C84.959 31.7422 84.8652 31.4199 84.8008 31.0332C84.7422 30.6406 84.7129 30.248 84.7129 29.8555ZM85.0469 26.208L85.0645 27.6406H83.6494C83.3154 27.6406 83.0254 27.6787 82.7793 27.7549C82.5332 27.8311 82.3311 27.9395 82.1729 28.0801C82.0146 28.2148 81.8975 28.373 81.8213 28.5547C81.751 28.7363 81.7158 28.9355 81.7158 29.1523C81.7158 29.3691 81.7656 29.5654 81.8652 29.7412C81.9648 29.9111 82.1084 30.0459 82.2959 30.1455C82.4834 30.2393 82.7031 30.2861 82.9551 30.2861C83.3359 30.2861 83.667 30.21 83.9482 30.0576C84.2295 29.9053 84.4463 29.7178 84.5986 29.4951C84.7568 29.2725 84.8389 29.0615 84.8447 28.8623L85.5127 29.9346C85.4189 30.1748 85.29 30.4238 85.126 30.6816C84.9678 30.9395 84.7656 31.1826 84.5195 31.4111C84.2734 31.6338 83.9775 31.8184 83.6318 31.9648C83.2861 32.1055 82.876 32.1758 82.4014 32.1758C81.7979 32.1758 81.25 32.0557 80.7578 31.8154C80.2715 31.5693 79.8848 31.2324 79.5977 30.8047C79.3164 30.3711 79.1758 29.8789 79.1758 29.3281C79.1758 28.8301 79.2695 28.3877 79.457 28.001C79.6445 27.6143 79.9199 27.2891 80.2832 27.0254C80.6523 26.7559 81.1123 26.5537 81.6631 26.4189C82.2139 26.2783 82.8525 26.208 83.5791 26.208H85.0469ZM89.2041 32V22.4902H91.7354V30.0225H94.917V22.4902H97.457V32H89.2041ZM98.8809 30.0312L98.7139 34.8213H96.3584V32H95.2949V30.0312H98.8809ZM102.687 28.4668L105.877 22.4902H108.408V32H105.877V26.0146L102.687 32H100.155V22.4902H102.687V28.4668ZM112.882 28.4668L116.072 22.4902H118.604V32H116.072V26.0146L112.882 32H110.351V22.4902H112.882V28.4668Z" fill="#21272A"/>
<path d="M23.9997 69.71C20.3177 69.71 17.333 66.7253 17.333 63.0433C17.333 59.3613 20.3177 56.3767 23.9997 56.3767C27.6817 56.3767 30.6663 59.3613 30.6663 63.0433C30.6663 66.7253 27.6817 69.71 23.9997 69.71Z" fill="#697077"/>
<path d="M46.0078 56.625V68H44.5078V57.8594H38.8984V68H37.3906V56.625H46.0078ZM49.9688 61.1719V71.25H48.5156V59.5469H49.8438L49.9688 61.1719ZM55.6641 63.7031V63.8672C55.6641 64.4818 55.5911 65.0521 55.4453 65.5781C55.2995 66.099 55.0859 66.5521 54.8047 66.9375C54.5286 67.3229 54.1875 67.6224 53.7812 67.8359C53.375 68.0495 52.9089 68.1562 52.3828 68.1562C51.8464 68.1562 51.3724 68.0677 50.9609 67.8906C50.5495 67.7135 50.2005 67.4557 49.9141 67.1172C49.6276 66.7786 49.3984 66.3724 49.2266 65.8984C49.0599 65.4245 48.9453 64.8906 48.8828 64.2969V63.4219C48.9453 62.7969 49.0625 62.237 49.2344 61.7422C49.4062 61.2474 49.6328 60.8255 49.9141 60.4766C50.2005 60.1224 50.5469 59.8542 50.9531 59.6719C51.3594 59.4844 51.8281 59.3906 52.3594 59.3906C52.8906 59.3906 53.362 59.4948 53.7734 59.7031C54.1849 59.9062 54.5312 60.1979 54.8125 60.5781C55.0938 60.9583 55.3047 61.4141 55.4453 61.9453C55.5911 62.4714 55.6641 63.0573 55.6641 63.7031ZM54.2109 63.8672V63.7031C54.2109 63.2812 54.1667 62.8854 54.0781 62.5156C53.9896 62.1406 53.8516 61.8125 53.6641 61.5312C53.4818 61.2448 53.2474 61.0208 52.9609 60.8594C52.6745 60.6927 52.3333 60.6094 51.9375 60.6094C51.5729 60.6094 51.2552 60.6719 50.9844 60.7969C50.7188 60.9219 50.4922 61.0911 50.3047 61.3047C50.1172 61.513 49.9635 61.7526 49.8438 62.0234C49.7292 62.2891 49.6432 62.5651 49.5859 62.8516V64.875C49.6901 65.2396 49.8359 65.5833 50.0234 65.9062C50.2109 66.224 50.4609 66.4818 50.7734 66.6797C51.0859 66.8724 51.4792 66.9688 51.9531 66.9688C52.3438 66.9688 52.6797 66.888 52.9609 66.7266C53.2474 66.5599 53.4818 66.3333 53.6641 66.0469C53.8516 65.7604 53.9896 65.4323 54.0781 65.0625C54.1667 64.6875 54.2109 64.2891 54.2109 63.8672ZM57.125 63.8672V63.6875C57.125 63.0781 57.2135 62.513 57.3906 61.9922C57.5677 61.4661 57.8229 61.0104 58.1562 60.625C58.4896 60.2344 58.8932 59.9323 59.3672 59.7188C59.8411 59.5 60.3724 59.3906 60.9609 59.3906C61.5547 59.3906 62.0885 59.5 62.5625 59.7188C63.0417 59.9323 63.4479 60.2344 63.7812 60.625C64.1198 61.0104 64.3776 61.4661 64.5547 61.9922C64.7318 62.513 64.8203 63.0781 64.8203 63.6875V63.8672C64.8203 64.4766 64.7318 65.0417 64.5547 65.5625C64.3776 66.0833 64.1198 66.5391 63.7812 66.9297C63.4479 67.3151 63.0443 67.6172 62.5703 67.8359C62.1016 68.0495 61.5703 68.1562 60.9766 68.1562C60.3828 68.1562 59.849 68.0495 59.375 67.8359C58.901 67.6172 58.4948 67.3151 58.1562 66.9297C57.8229 66.5391 57.5677 66.0833 57.3906 65.5625C57.2135 65.0417 57.125 64.4766 57.125 63.8672ZM58.5703 63.6875V63.8672C58.5703 64.2891 58.6198 64.6875 58.7188 65.0625C58.8177 65.4323 58.9661 65.7604 59.1641 66.0469C59.3672 66.3333 59.6198 66.5599 59.9219 66.7266C60.224 66.888 60.5755 66.9688 60.9766 66.9688C61.3724 66.9688 61.7188 66.888 62.0156 66.7266C62.3177 66.5599 62.5677 66.3333 62.7656 66.0469C62.9635 65.7604 63.112 65.4323 63.2109 65.0625C63.3151 64.6875 63.3672 64.2891 63.3672 63.8672V63.6875C63.3672 63.2708 63.3151 62.8776 63.2109 62.5078C63.112 62.1328 62.9609 61.8021 62.7578 61.5156C62.5599 61.224 62.3099 60.9948 62.0078 60.8281C61.7109 60.6615 61.362 60.5781 60.9609 60.5781C60.5651 60.5781 60.2161 60.6615 59.9141 60.8281C59.6172 60.9948 59.3672 61.224 59.1641 61.5156C58.9661 61.8021 58.8177 62.1328 58.7188 62.5078C58.6198 62.8776 58.5703 63.2708 58.5703 63.6875ZM66.7578 59.5469H68.2031V66.8125H71.2969V59.5469H72.75V66.8125H75.8359V59.5469H77.2812V68H66.7578V59.5469ZM85.2344 59.5469V60.7422H81.1484V59.5469H85.2344ZM86.5078 59.5469V68H85.0625V59.5469H86.5078ZM80.7969 59.5469H82.25L82.0312 63.625C81.9948 64.2552 81.9349 64.8125 81.8516 65.2969C81.7734 65.776 81.6641 66.1875 81.5234 66.5312C81.388 66.875 81.2161 67.1562 81.0078 67.375C80.8047 67.5885 80.5599 67.7474 80.2734 67.8516C79.987 67.9505 79.6562 68 79.2812 68H78.8281V66.7266L79.1406 66.7031C79.3646 66.6875 79.5547 66.6354 79.7109 66.5469C79.8724 66.4583 80.0078 66.3281 80.1172 66.1562C80.2266 65.9792 80.3151 65.7526 80.3828 65.4766C80.4557 65.2005 80.5104 64.8724 80.5469 64.4922C80.5885 64.112 80.6198 63.6693 80.6406 63.1641L80.7969 59.5469ZM90.0234 62.4531H92.5625C93.2448 62.4531 93.8203 62.5729 94.2891 62.8125C94.7578 63.0469 95.112 63.3724 95.3516 63.7891C95.5964 64.2005 95.7188 64.6693 95.7188 65.1953C95.7188 65.5859 95.651 65.9531 95.5156 66.2969C95.3802 66.6354 95.1771 66.9323 94.9062 67.1875C94.6406 67.4427 94.3099 67.6432 93.9141 67.7891C93.5234 67.9297 93.0729 68 92.5625 68H88.9688V59.5469H90.4141V66.8125H92.5625C92.9792 66.8125 93.3125 66.737 93.5625 66.5859C93.8125 66.4349 93.9922 66.2396 94.1016 66C94.2109 65.7604 94.2656 65.5104 94.2656 65.25C94.2656 64.9948 94.2109 64.7448 94.1016 64.5C93.9922 64.2552 93.8125 64.0521 93.5625 63.8906C93.3125 63.724 92.9792 63.6406 92.5625 63.6406H90.0234V62.4531ZM98.7266 59.5469V68H97.2812V59.5469H98.7266ZM102.82 65.7109L106.719 59.5469H108.172V68H106.719V61.8359L102.82 68H101.383V59.5469H102.82V65.7109ZM105.93 56.4844H107.102C107.102 56.8906 107.008 57.2526 106.82 57.5703C106.633 57.8828 106.365 58.1276 106.016 58.3047C105.667 58.4818 105.253 58.5703 104.773 58.5703C104.049 58.5703 103.477 58.3776 103.055 57.9922C102.638 57.6016 102.43 57.099 102.43 56.4844H103.602C103.602 56.7917 103.69 57.0625 103.867 57.2969C104.044 57.5312 104.346 57.6484 104.773 57.6484C105.19 57.6484 105.487 57.5312 105.664 57.2969C105.841 57.0625 105.93 56.7917 105.93 56.4844ZM119.922 59.5469V60.7422H116.016V68H114.57V59.5469H119.922ZM120.641 63.8672V63.6875C120.641 63.0781 120.729 62.513 120.906 61.9922C121.083 61.4661 121.339 61.0104 121.672 60.625C122.005 60.2344 122.409 59.9323 122.883 59.7188C123.357 59.5 123.888 59.3906 124.477 59.3906C125.07 59.3906 125.604 59.5 126.078 59.7188C126.557 59.9323 126.964 60.2344 127.297 60.625C127.635 61.0104 127.893 61.4661 128.07 61.9922C128.247 62.513 128.336 63.0781 128.336 63.6875V63.8672C128.336 64.4766 128.247 65.0417 128.07 65.5625C127.893 66.0833 127.635 66.5391 127.297 66.9297C126.964 67.3151 126.56 67.6172 126.086 67.8359C125.617 68.0495 125.086 68.1562 124.492 68.1562C123.898 68.1562 123.365 68.0495 122.891 67.8359C122.417 67.6172 122.01 67.3151 121.672 66.9297C121.339 66.5391 121.083 66.0833 120.906 65.5625C120.729 65.0417 120.641 64.4766 120.641 63.8672ZM122.086 63.6875V63.8672C122.086 64.2891 122.135 64.6875 122.234 65.0625C122.333 65.4323 122.482 65.7604 122.68 66.0469C122.883 66.3333 123.135 66.5599 123.438 66.7266C123.74 66.888 124.091 66.9688 124.492 66.9688C124.888 66.9688 125.234 66.888 125.531 66.7266C125.833 66.5599 126.083 66.3333 126.281 66.0469C126.479 65.7604 126.628 65.4323 126.727 65.0625C126.831 64.6875 126.883 64.2891 126.883 63.8672V63.6875C126.883 63.2708 126.831 62.8776 126.727 62.5078C126.628 62.1328 126.477 61.8021 126.273 61.5156C126.076 61.224 125.826 60.9948 125.523 60.8281C125.227 60.6615 124.878 60.5781 124.477 60.5781C124.081 60.5781 123.732 60.6615 123.43 60.8281C123.133 60.9948 122.883 61.224 122.68 61.5156C122.482 61.8021 122.333 62.1328 122.234 62.5078C122.135 62.8776 122.086 63.2708 122.086 63.6875ZM131.109 59.5469H132.555L132.43 62.7109C132.398 63.513 132.307 64.2057 132.156 64.7891C132.005 65.3724 131.812 65.8698 131.578 66.2812C131.344 66.6875 131.081 67.0286 130.789 67.3047C130.503 67.5807 130.206 67.8125 129.898 68H129.18L129.219 66.8203L129.516 66.8125C129.688 66.6094 129.854 66.401 130.016 66.1875C130.177 65.9688 130.326 65.7109 130.461 65.4141C130.596 65.112 130.708 64.7448 130.797 64.3125C130.891 63.875 130.951 63.3411 130.977 62.7109L131.109 59.5469ZM131.469 59.5469H136.555V68H135.109V60.8828H131.469V59.5469ZM128.852 66.8125H137.641V70.4922H136.195V68H130.297V70.4922H128.844L128.852 66.8125Z" fill="#697077"/>
<path d="M163 69.71C159.318 69.71 156.333 66.7253 156.333 63.0433C156.333 59.3613 159.318 56.3767 163 56.3767C166.682 56.3767 169.666 59.3613 169.666 63.0433C169.666 66.7253 166.682 69.71 163 69.71Z" fill="#458FF6"/>
<path d="M180.523 56.625V68H179.039V56.625H180.523ZM184.18 56.625V57.8594H175.391V56.625H184.18ZM188.375 68.1562C187.786 68.1562 187.253 68.0573 186.773 67.8594C186.299 67.6562 185.891 67.3724 185.547 67.0078C185.208 66.6432 184.948 66.2109 184.766 65.7109C184.583 65.2109 184.492 64.6641 184.492 64.0703V63.7422C184.492 63.0547 184.594 62.4427 184.797 61.9062C185 61.3646 185.276 60.9062 185.625 60.5312C185.974 60.1562 186.37 59.8724 186.812 59.6797C187.255 59.487 187.714 59.3906 188.188 59.3906C188.792 59.3906 189.312 59.4948 189.75 59.7031C190.193 59.9115 190.555 60.2031 190.836 60.5781C191.117 60.9479 191.326 61.3854 191.461 61.8906C191.596 62.3906 191.664 62.9375 191.664 63.5312V64.1797H185.352V63H190.219V62.8906C190.198 62.5156 190.12 62.151 189.984 61.7969C189.854 61.4427 189.646 61.151 189.359 60.9219C189.073 60.6927 188.682 60.5781 188.188 60.5781C187.859 60.5781 187.557 60.6484 187.281 60.7891C187.005 60.9245 186.768 61.1276 186.57 61.3984C186.372 61.6693 186.219 62 186.109 62.3906C186 62.7812 185.945 63.2318 185.945 63.7422V64.0703C185.945 64.4714 186 64.849 186.109 65.2031C186.224 65.5521 186.388 65.8594 186.602 66.125C186.82 66.3906 187.083 66.599 187.391 66.75C187.703 66.901 188.057 66.9766 188.453 66.9766C188.964 66.9766 189.396 66.8724 189.75 66.6641C190.104 66.4557 190.414 66.1771 190.68 65.8281L191.555 66.5234C191.372 66.7995 191.141 67.0625 190.859 67.3125C190.578 67.5625 190.232 67.7656 189.82 67.9219C189.414 68.0781 188.932 68.1562 188.375 68.1562ZM194.922 59.5469V68H193.477V59.5469H194.922ZM200.469 59.5469L196.461 64.3906H194.438L194.219 63.125H195.875L198.711 59.5469H200.469ZM198.914 68L195.805 64.1719L196.734 63.125L200.75 68H198.914ZM204.383 67.125L206.734 59.5469H208.281L204.891 69.3047C204.812 69.513 204.708 69.737 204.578 69.9766C204.453 70.2214 204.292 70.4531 204.094 70.6719C203.896 70.8906 203.656 71.0677 203.375 71.2031C203.099 71.3438 202.768 71.4141 202.383 71.4141C202.268 71.4141 202.122 71.3984 201.945 71.3672C201.768 71.3359 201.643 71.3099 201.57 71.2891L201.562 70.1172C201.604 70.1224 201.669 70.1276 201.758 70.1328C201.852 70.1432 201.917 70.1484 201.953 70.1484C202.281 70.1484 202.56 70.1042 202.789 70.0156C203.018 69.9323 203.211 69.7891 203.367 69.5859C203.529 69.388 203.667 69.1146 203.781 68.7656L204.383 67.125ZM202.656 59.5469L204.852 66.1094L205.227 67.6328L204.188 68.1641L201.078 59.5469H202.656ZM221.336 66.8125L221.195 70.5078H219.906V68H218.805V66.8125H221.336ZM209.625 59.5469H211.07V66.8125H214.164V59.5469H215.617V66.8125H218.703V59.5469H220.148V68H209.625V59.5469ZM224.398 65.7109L228.297 59.5469H229.75V68H228.297V61.8359L224.398 68H222.961V59.5469H224.398V65.7109ZM233.633 65.7109L237.531 59.5469H238.984V68H237.531V61.8359L233.633 68H232.195V59.5469H233.633V65.7109ZM236.742 56.4844H237.914C237.914 56.8906 237.82 57.2526 237.633 57.5703C237.445 57.8828 237.177 58.1276 236.828 58.3047C236.479 58.4818 236.065 58.5703 235.586 58.5703C234.862 58.5703 234.289 58.3776 233.867 57.9922C233.451 57.6016 233.242 57.099 233.242 56.4844H234.414C234.414 56.7917 234.503 57.0625 234.68 57.2969C234.857 57.5312 235.159 57.6484 235.586 57.6484C236.003 57.6484 236.299 57.5312 236.477 57.2969C236.654 57.0625 236.742 56.7917 236.742 56.4844ZM250.734 59.5469V60.7422H246.828V68H245.383V59.5469H250.734ZM251.453 63.8672V63.6875C251.453 63.0781 251.542 62.513 251.719 61.9922C251.896 61.4661 252.151 61.0104 252.484 60.625C252.818 60.2344 253.221 59.9323 253.695 59.7188C254.169 59.5 254.701 59.3906 255.289 59.3906C255.883 59.3906 256.417 59.5 256.891 59.7188C257.37 59.9323 257.776 60.2344 258.109 60.625C258.448 61.0104 258.706 61.4661 258.883 61.9922C259.06 62.513 259.148 63.0781 259.148 63.6875V63.8672C259.148 64.4766 259.06 65.0417 258.883 65.5625C258.706 66.0833 258.448 66.5391 258.109 66.9297C257.776 67.3151 257.372 67.6172 256.898 67.8359C256.43 68.0495 255.898 68.1562 255.305 68.1562C254.711 68.1562 254.177 68.0495 253.703 67.8359C253.229 67.6172 252.823 67.3151 252.484 66.9297C252.151 66.5391 251.896 66.0833 251.719 65.5625C251.542 65.0417 251.453 64.4766 251.453 63.8672ZM252.898 63.6875V63.8672C252.898 64.2891 252.948 64.6875 253.047 65.0625C253.146 65.4323 253.294 65.7604 253.492 66.0469C253.695 66.3333 253.948 66.5599 254.25 66.7266C254.552 66.888 254.904 66.9688 255.305 66.9688C255.701 66.9688 256.047 66.888 256.344 66.7266C256.646 66.5599 256.896 66.3333 257.094 66.0469C257.292 65.7604 257.44 65.4323 257.539 65.0625C257.643 64.6875 257.695 64.2891 257.695 63.8672V63.6875C257.695 63.2708 257.643 62.8776 257.539 62.5078C257.44 62.1328 257.289 61.8021 257.086 61.5156C256.888 61.224 256.638 60.9948 256.336 60.8281C256.039 60.6615 255.69 60.5781 255.289 60.5781C254.893 60.5781 254.544 60.6615 254.242 60.8281C253.945 60.9948 253.695 61.224 253.492 61.5156C253.294 61.8021 253.146 62.1328 253.047 62.5078C252.948 62.8776 252.898 63.2708 252.898 63.6875ZM261.922 59.5469H263.367L263.242 62.7109C263.211 63.513 263.12 64.2057 262.969 64.7891C262.818 65.3724 262.625 65.8698 262.391 66.2812C262.156 66.6875 261.893 67.0286 261.602 67.3047C261.315 67.5807 261.018 67.8125 260.711 68H259.992L260.031 66.8203L260.328 66.8125C260.5 66.6094 260.667 66.401 260.828 66.1875C260.99 65.9688 261.138 65.7109 261.273 65.4141C261.409 65.112 261.521 64.7448 261.609 64.3125C261.703 63.875 261.763 63.3411 261.789 62.7109L261.922 59.5469ZM262.281 59.5469H267.367V68H265.922V60.8828H262.281V59.5469ZM259.664 66.8125H268.453V70.4922H267.008V68H261.109V70.4922H259.656L259.664 66.8125Z" fill="#697077"/>
<path d="M39.8935 93.2727V102H38.8366V94.3807H38.7855L36.6548 95.7955V94.7216L38.8366 93.2727H39.8935ZM45.25 102.119C44.608 102.119 44.0611 101.945 43.6094 101.595C43.1577 101.243 42.8125 100.733 42.5739 100.065C42.3352 99.3949 42.2159 98.5852 42.2159 97.6364C42.2159 96.6932 42.3352 95.8878 42.5739 95.2202C42.8153 94.5497 43.1619 94.0384 43.6136 93.6861C44.0682 93.331 44.6136 93.1534 45.25 93.1534C45.8864 93.1534 46.4304 93.331 46.8821 93.6861C47.3366 94.0384 47.6832 94.5497 47.9219 95.2202C48.1634 95.8878 48.2841 96.6932 48.2841 97.6364C48.2841 98.5852 48.1648 99.3949 47.9261 100.065C47.6875 100.733 47.3423 101.243 46.8906 101.595C46.4389 101.945 45.892 102.119 45.25 102.119ZM45.25 101.182C45.8864 101.182 46.3807 100.875 46.733 100.261C47.0852 99.6477 47.2614 98.7727 47.2614 97.6364C47.2614 96.8807 47.1804 96.2372 47.0185 95.706C46.8594 95.1747 46.6293 94.7699 46.3281 94.4915C46.0298 94.2131 45.6705 94.0739 45.25 94.0739C44.6193 94.0739 44.1264 94.3849 43.7713 95.0071C43.4162 95.6264 43.2386 96.5028 43.2386 97.6364C43.2386 98.392 43.3182 99.0341 43.4773 99.5625C43.6364 100.091 43.8651 100.493 44.1634 100.768C44.4645 101.044 44.8267 101.182 45.25 101.182ZM52.75 102.119C52.108 102.119 51.5611 101.945 51.1094 101.595C50.6577 101.243 50.3125 100.733 50.0739 100.065C49.8352 99.3949 49.7159 98.5852 49.7159 97.6364C49.7159 96.6932 49.8352 95.8878 50.0739 95.2202C50.3153 94.5497 50.6619 94.0384 51.1136 93.6861C51.5682 93.331 52.1136 93.1534 52.75 93.1534C53.3864 93.1534 53.9304 93.331 54.3821 93.6861C54.8366 94.0384 55.1832 94.5497 55.4219 95.2202C55.6634 95.8878 55.7841 96.6932 55.7841 97.6364C55.7841 98.5852 55.6648 99.3949 55.4261 100.065C55.1875 100.733 54.8423 101.243 54.3906 101.595C53.9389 101.945 53.392 102.119 52.75 102.119ZM52.75 101.182C53.3864 101.182 53.8807 100.875 54.233 100.261C54.5852 99.6477 54.7614 98.7727 54.7614 97.6364C54.7614 96.8807 54.6804 96.2372 54.5185 95.706C54.3594 95.1747 54.1293 94.7699 53.8281 94.4915C53.5298 94.2131 53.1705 94.0739 52.75 94.0739C52.1193 94.0739 51.6264 94.3849 51.2713 95.0071C50.9162 95.6264 50.7386 96.5028 50.7386 97.6364C50.7386 98.392 50.8182 99.0341 50.9773 99.5625C51.1364 100.091 51.3651 100.493 51.6634 100.768C51.9645 101.044 52.3267 101.182 52.75 101.182ZM60.25 102.119C59.608 102.119 59.0611 101.945 58.6094 101.595C58.1577 101.243 57.8125 100.733 57.5739 100.065C57.3352 99.3949 57.2159 98.5852 57.2159 97.6364C57.2159 96.6932 57.3352 95.8878 57.5739 95.2202C57.8153 94.5497 58.1619 94.0384 58.6136 93.6861C59.0682 93.331 59.6136 93.1534 60.25 93.1534C60.8864 93.1534 61.4304 93.331 61.8821 93.6861C62.3366 94.0384 62.6832 94.5497 62.9219 95.2202C63.1634 95.8878 63.2841 96.6932 63.2841 97.6364C63.2841 98.5852 63.1648 99.3949 62.9261 100.065C62.6875 100.733 62.3423 101.243 61.8906 101.595C61.4389 101.945 60.892 102.119 60.25 102.119ZM60.25 101.182C60.8864 101.182 61.3807 100.875 61.733 100.261C62.0852 99.6477 62.2614 98.7727 62.2614 97.6364C62.2614 96.8807 62.1804 96.2372 62.0185 95.706C61.8594 95.1747 61.6293 94.7699 61.3281 94.4915C61.0298 94.2131 60.6705 94.0739 60.25 94.0739C59.6193 94.0739 59.1264 94.3849 58.7713 95.0071C58.4162 95.6264 58.2386 96.5028 58.2386 97.6364C58.2386 98.392 58.3182 99.0341 58.4773 99.5625C58.6364 100.091 58.8651 100.493 59.1634 100.768C59.4645 101.044 59.8267 101.182 60.25 101.182Z" fill="#697077"/>
<line x1="72" y1="97" x2="519.192" y2="97" stroke="#DDE1E6"/>
<path d="M45.1935 118.353C45.5515 118.356 45.9094 118.424 46.2674 118.558C46.6254 118.691 46.9521 118.913 47.2475 119.223C47.543 119.53 47.7802 119.949 47.9592 120.48C48.1381 121.011 48.2276 121.677 48.2276 122.478C48.2276 123.254 48.1538 123.943 48.006 124.545C47.8612 125.145 47.6509 125.65 47.3754 126.062C47.1026 126.474 46.7702 126.787 46.3782 127C45.989 127.213 45.5487 127.319 45.0572 127.319C44.5685 127.319 44.1325 127.223 43.7489 127.03C43.3683 126.834 43.0558 126.562 42.8114 126.216C42.57 125.866 42.4151 125.461 42.3469 125.001H43.3867C43.4805 125.402 43.6665 125.733 43.945 125.994C44.2262 126.253 44.5969 126.382 45.0572 126.382C45.7305 126.382 46.2617 126.088 46.6509 125.5C47.043 124.912 47.239 124.081 47.239 123.007H47.1708C47.0117 123.245 46.8228 123.451 46.604 123.625C46.3853 123.798 46.1424 123.932 45.8754 124.025C45.6083 124.119 45.3242 124.166 45.0231 124.166C44.5231 124.166 44.0643 124.042 43.6467 123.795C43.2319 123.545 42.8995 123.203 42.6495 122.768C42.4023 122.331 42.2788 121.831 42.2788 121.268C42.2788 120.734 42.3981 120.245 42.6367 119.802C42.8782 119.356 43.2163 119.001 43.6509 118.737C44.0884 118.473 44.6026 118.345 45.1935 118.353ZM45.1935 119.291C44.8356 119.291 44.5131 119.38 44.2262 119.559C43.9421 119.736 43.7163 119.974 43.5487 120.275C43.3839 120.574 43.3015 120.905 43.3015 121.268C43.3015 121.632 43.381 121.963 43.5401 122.261C43.7021 122.557 43.9222 122.792 44.2006 122.968C44.4819 123.142 44.8015 123.228 45.1594 123.228C45.4293 123.228 45.6808 123.176 45.9137 123.071C46.1467 122.963 46.3498 122.816 46.5231 122.632C46.6992 122.444 46.837 122.233 46.9364 121.997C47.0359 121.758 47.0856 121.51 47.0856 121.251C47.0856 120.91 47.0032 120.591 46.8384 120.292C46.6765 119.994 46.4521 119.753 46.1651 119.568C45.881 119.383 45.5572 119.291 45.1935 119.291ZM52.75 127.319C52.108 127.319 51.5611 127.145 51.1094 126.795C50.6577 126.443 50.3125 125.933 50.0739 125.265C49.8352 124.595 49.7159 123.785 49.7159 122.836C49.7159 121.893 49.8352 121.088 50.0739 120.42C50.3153 119.75 50.6619 119.238 51.1136 118.886C51.5682 118.531 52.1136 118.353 52.75 118.353C53.3864 118.353 53.9304 118.531 54.3821 118.886C54.8366 119.238 55.1832 119.75 55.4219 120.42C55.6634 121.088 55.7841 121.893 55.7841 122.836C55.7841 123.785 55.6648 124.595 55.4261 125.265C55.1875 125.933 54.8423 126.443 54.3906 126.795C53.9389 127.145 53.392 127.319 52.75 127.319ZM52.75 126.382C53.3864 126.382 53.8807 126.075 54.233 125.461C54.5852 124.848 54.7614 123.973 54.7614 122.836C54.7614 122.081 54.6804 121.437 54.5185 120.906C54.3594 120.375 54.1293 119.97 53.8281 119.691C53.5298 119.413 53.1705 119.274 52.75 119.274C52.1193 119.274 51.6264 119.585 51.2713 120.207C50.9162 120.826 50.7386 121.703 50.7386 122.836C50.7386 123.592 50.8182 124.234 50.9773 124.763C51.1364 125.291 51.3651 125.693 51.6634 125.968C51.9645 126.244 52.3267 126.382 52.75 126.382ZM60.25 127.319C59.608 127.319 59.0611 127.145 58.6094 126.795C58.1577 126.443 57.8125 125.933 57.5739 125.265C57.3352 124.595 57.2159 123.785 57.2159 122.836C57.2159 121.893 57.3352 121.088 57.5739 120.42C57.8153 119.75 58.1619 119.238 58.6136 118.886C59.0682 118.531 59.6136 118.353 60.25 118.353C60.8864 118.353 61.4304 118.531 61.8821 118.886C62.3366 119.238 62.6832 119.75 62.9219 120.42C63.1634 121.088 63.2841 121.893 63.2841 122.836C63.2841 123.785 63.1648 124.595 62.9261 125.265C62.6875 125.933 62.3423 126.443 61.8906 126.795C61.4389 127.145 60.892 127.319 60.25 127.319ZM60.25 126.382C60.8864 126.382 61.3807 126.075 61.733 125.461C62.0852 124.848 62.2614 123.973 62.2614 122.836C62.2614 122.081 62.1804 121.437 62.0185 120.906C61.8594 120.375 61.6293 119.97 61.3281 119.691C61.0298 119.413 60.6705 119.274 60.25 119.274C59.6193 119.274 59.1264 119.585 58.7713 120.207C58.4162 120.826 58.2386 121.703 58.2386 122.836C58.2386 123.592 58.3182 124.234 58.4773 124.763C58.6364 125.291 58.8651 125.693 59.1634 125.968C59.4645 126.244 59.8267 126.382 60.25 126.382Z" fill="#697077"/>
<line x1="72" y1="122.2" x2="519.192" y2="122.2" stroke="#DDE1E6"/>
<path d="M45.3043 152.519C44.7191 152.519 44.2021 152.416 43.7532 152.208C43.3072 151.998 42.9592 151.71 42.7092 151.343C42.4592 150.974 42.3356 150.553 42.3384 150.082C42.3356 149.712 42.408 149.372 42.5558 149.059C42.7035 148.744 42.9052 148.481 43.1609 148.271C43.4194 148.058 43.7077 147.923 44.0259 147.866V147.815C43.6083 147.707 43.2759 147.472 43.0288 147.112C42.7816 146.748 42.6594 146.335 42.6623 145.872C42.6594 145.428 42.7717 145.032 42.9989 144.683C43.2262 144.333 43.5387 144.058 43.9364 143.856C44.337 143.654 44.793 143.553 45.3043 143.553C45.81 143.553 46.2617 143.654 46.6594 143.856C47.0572 144.058 47.3697 144.333 47.5969 144.683C47.8271 145.032 47.9435 145.428 47.9464 145.872C47.9435 146.335 47.8171 146.748 47.5671 147.112C47.32 147.472 46.9918 147.707 46.5827 147.815V147.866C46.8981 147.923 47.1822 148.058 47.435 148.271C47.6879 148.481 47.8896 148.744 48.0401 149.059C48.1907 149.372 48.2674 149.712 48.2702 150.082C48.2674 150.553 48.1396 150.974 47.8867 151.343C47.6367 151.71 47.2887 151.998 46.8427 152.208C46.3995 152.416 45.8867 152.519 45.3043 152.519ZM45.3043 151.582C45.6992 151.582 46.0401 151.518 46.3271 151.39C46.614 151.262 46.8356 151.082 46.9918 150.849C47.1481 150.616 47.2276 150.343 47.2305 150.031C47.2276 149.701 47.1424 149.41 46.9748 149.157C46.8072 148.904 46.5785 148.705 46.2887 148.561C46.0018 148.416 45.6737 148.343 45.3043 148.343C44.9322 148.343 44.5998 148.416 44.3072 148.561C44.0174 148.705 43.7887 148.904 43.6211 149.157C43.4563 149.41 43.3754 149.701 43.3782 150.031C43.3754 150.343 43.4506 150.616 43.604 150.849C43.7603 151.082 43.9833 151.262 44.2731 151.39C44.5629 151.518 44.9066 151.582 45.3043 151.582ZM45.3043 147.44C45.6168 147.44 45.8938 147.377 46.1353 147.252C46.3796 147.127 46.5714 146.953 46.7106 146.728C46.8498 146.504 46.9208 146.241 46.9237 145.94C46.9208 145.644 46.8512 145.387 46.7148 145.168C46.5785 144.947 46.3896 144.776 46.1481 144.657C45.9066 144.535 45.6254 144.474 45.3043 144.474C44.9776 144.474 44.6921 144.535 44.4478 144.657C44.2035 144.776 44.0146 144.947 43.881 145.168C43.7475 145.387 43.6822 145.644 43.685 145.94C43.6822 146.241 43.7489 146.504 43.8853 146.728C44.0245 146.953 44.2163 147.127 44.4606 147.252C44.7049 147.377 44.9862 147.44 45.3043 147.44ZM52.75 152.519C52.108 152.519 51.5611 152.345 51.1094 151.995C50.6577 151.643 50.3125 151.133 50.0739 150.465C49.8352 149.795 49.7159 148.985 49.7159 148.036C49.7159 147.093 49.8352 146.288 50.0739 145.62C50.3153 144.95 50.6619 144.438 51.1136 144.086C51.5682 143.731 52.1136 143.553 52.75 143.553C53.3864 143.553 53.9304 143.731 54.3821 144.086C54.8366 144.438 55.1832 144.95 55.4219 145.62C55.6634 146.288 55.7841 147.093 55.7841 148.036C55.7841 148.985 55.6648 149.795 55.4261 150.465C55.1875 151.133 54.8423 151.643 54.3906 151.995C53.9389 152.345 53.392 152.519 52.75 152.519ZM52.75 151.582C53.3864 151.582 53.8807 151.275 54.233 150.661C54.5852 150.048 54.7614 149.173 54.7614 148.036C54.7614 147.281 54.6804 146.637 54.5185 146.106C54.3594 145.575 54.1293 145.17 53.8281 144.891C53.5298 144.613 53.1705 144.474 52.75 144.474C52.1193 144.474 51.6264 144.785 51.2713 145.407C50.9162 146.026 50.7386 146.903 50.7386 148.036C50.7386 148.792 50.8182 149.434 50.9773 149.962C51.1364 150.491 51.3651 150.893 51.6634 151.168C51.9645 151.444 52.3267 151.582 52.75 151.582ZM60.25 152.519C59.608 152.519 59.0611 152.345 58.6094 151.995C58.1577 151.643 57.8125 151.133 57.5739 150.465C57.3352 149.795 57.2159 148.985 57.2159 148.036C57.2159 147.093 57.3352 146.288 57.5739 145.62C57.8153 144.95 58.1619 144.438 58.6136 144.086C59.0682 143.731 59.6136 143.553 60.25 143.553C60.8864 143.553 61.4304 143.731 61.8821 144.086C62.3366 144.438 62.6832 144.95 62.9219 145.62C63.1634 146.288 63.2841 147.093 63.2841 148.036C63.2841 148.985 63.1648 149.795 62.9261 150.465C62.6875 151.133 62.3423 151.643 61.8906 151.995C61.4389 152.345 60.892 152.519 60.25 152.519ZM60.25 151.582C60.8864 151.582 61.3807 151.275 61.733 150.661C62.0852 150.048 62.2614 149.173 62.2614 148.036C62.2614 147.281 62.1804 146.637 62.0185 146.106C61.8594 145.575 61.6293 145.17 61.3281 144.891C61.0298 144.613 60.6705 144.474 60.25 144.474C59.6193 144.474 59.1264 144.785 58.7713 145.407C58.4162 146.026 58.2386 146.903 58.2386 148.036C58.2386 148.792 58.3182 149.434 58.4773 149.962C58.6364 150.491 58.8651 150.893 59.1634 151.168C59.4645 151.444 59.8267 151.582 60.25 151.582Z" fill="#697077"/>
<line x1="72" y1="147.4" x2="519.192" y2="147.4" stroke="#DDE1E6"/>
<path d="M43.5082 177.6L47.4116 169.878V169.81H42.9116V168.873H48.5025V169.861L44.6161 177.6H43.5082ZM52.75 177.719C52.108 177.719 51.5611 177.545 51.1094 177.195C50.6577 176.843 50.3125 176.333 50.0739 175.665C49.8352 174.995 49.7159 174.185 49.7159 173.236C49.7159 172.293 49.8352 171.488 50.0739 170.82C50.3153 170.15 50.6619 169.638 51.1136 169.286C51.5682 168.931 52.1136 168.753 52.75 168.753C53.3864 168.753 53.9304 168.931 54.3821 169.286C54.8366 169.638 55.1832 170.15 55.4219 170.82C55.6634 171.488 55.7841 172.293 55.7841 173.236C55.7841 174.185 55.6648 174.995 55.4261 175.665C55.1875 176.333 54.8423 176.843 54.3906 177.195C53.9389 177.545 53.392 177.719 52.75 177.719ZM52.75 176.782C53.3864 176.782 53.8807 176.475 54.233 175.861C54.5852 175.248 54.7614 174.373 54.7614 173.236C54.7614 172.481 54.6804 171.837 54.5185 171.306C54.3594 170.775 54.1293 170.37 53.8281 170.091C53.5298 169.813 53.1705 169.674 52.75 169.674C52.1193 169.674 51.6264 169.985 51.2713 170.607C50.9162 171.226 50.7386 172.103 50.7386 173.236C50.7386 173.992 50.8182 174.634 50.9773 175.163C51.1364 175.691 51.3651 176.093 51.6634 176.368C51.9645 176.644 52.3267 176.782 52.75 176.782ZM60.25 177.719C59.608 177.719 59.0611 177.545 58.6094 177.195C58.1577 176.843 57.8125 176.333 57.5739 175.665C57.3352 174.995 57.2159 174.185 57.2159 173.236C57.2159 172.293 57.3352 171.488 57.5739 170.82C57.8153 170.15 58.1619 169.638 58.6136 169.286C59.0682 168.931 59.6136 168.753 60.25 168.753C60.8864 168.753 61.4304 168.931 61.8821 169.286C62.3366 169.638 62.6832 170.15 62.9219 170.82C63.1634 171.488 63.2841 172.293 63.2841 173.236C63.2841 174.185 63.1648 174.995 62.9261 175.665C62.6875 176.333 62.3423 176.843 61.8906 177.195C61.4389 177.545 60.892 177.719 60.25 177.719ZM60.25 176.782C60.8864 176.782 61.3807 176.475 61.733 175.861C62.0852 175.248 62.2614 174.373 62.2614 173.236C62.2614 172.481 62.1804 171.837 62.0185 171.306C61.8594 170.775 61.6293 170.37 61.3281 170.091C61.0298 169.813 60.6705 169.674 60.25 169.674C59.6193 169.674 59.1264 169.985 58.7713 170.607C58.4162 171.226 58.2386 172.103 58.2386 173.236C58.2386 173.992 58.3182 174.634 58.4773 175.163C58.6364 175.691 58.8651 176.093 59.1634 176.368C59.4645 176.644 59.8267 176.782 60.25 176.782Z" fill="#697077"/>
<line x1="72" y1="172.6" x2="519.192" y2="172.6" stroke="#DDE1E6"/>
<path d="M45.3129 202.919C44.9549 202.914 44.5969 202.845 44.239 202.715C43.881 202.584 43.5543 202.364 43.2589 202.054C42.9634 201.742 42.7262 201.32 42.5472 200.789C42.3683 200.255 42.2788 199.584 42.2788 198.777C42.2788 198.005 42.3512 197.32 42.4961 196.723C42.641 196.124 42.8512 195.62 43.1268 195.21C43.4023 194.799 43.7347 194.486 44.1239 194.273C44.516 194.06 44.9577 193.953 45.4492 193.953C45.9379 193.953 46.3725 194.051 46.7532 194.247C47.1367 194.441 47.4492 194.71 47.6907 195.057C47.9322 195.404 48.0884 195.803 48.1594 196.255H47.1197C47.0231 195.862 46.8356 195.537 46.5572 195.279C46.2788 195.02 45.9094 194.891 45.4492 194.891C44.7731 194.891 44.2404 195.185 43.8512 195.773C43.4648 196.361 43.2702 197.186 43.2674 198.249H43.3356C43.4947 198.007 43.6836 197.801 43.9023 197.631C44.1239 197.458 44.3683 197.324 44.6353 197.23C44.9023 197.137 45.185 197.09 45.4833 197.09C45.9833 197.09 46.4407 197.215 46.8555 197.465C47.2702 197.712 47.6026 198.054 47.8526 198.492C48.1026 198.926 48.2276 199.425 48.2276 199.987C48.2276 200.527 48.1069 201.022 47.8654 201.47C47.6239 201.916 47.2844 202.272 46.8469 202.536C46.4123 202.797 45.9009 202.925 45.3129 202.919ZM45.3129 201.982C45.6708 201.982 45.9918 201.892 46.2759 201.713C46.5629 201.534 46.7887 201.294 46.9535 200.993C47.1211 200.692 47.2049 200.357 47.2049 199.987C47.2049 199.627 47.1239 199.299 46.962 199.003C46.8029 198.705 46.5827 198.468 46.3015 198.291C46.0231 198.115 45.7049 198.027 45.3469 198.027C45.0771 198.027 44.8256 198.081 44.5927 198.189C44.3597 198.294 44.1552 198.439 43.979 198.624C43.8058 198.809 43.6694 199.02 43.57 199.259C43.4705 199.495 43.4208 199.743 43.4208 200.005C43.4208 200.351 43.5018 200.675 43.6637 200.976C43.8285 201.277 44.0529 201.52 44.337 201.705C44.6239 201.889 44.9492 201.982 45.3129 201.982ZM52.75 202.919C52.108 202.919 51.5611 202.745 51.1094 202.395C50.6577 202.043 50.3125 201.533 50.0739 200.865C49.8352 200.195 49.7159 199.385 49.7159 198.436C49.7159 197.493 49.8352 196.688 50.0739 196.02C50.3153 195.35 50.6619 194.838 51.1136 194.486C51.5682 194.131 52.1136 193.953 52.75 193.953C53.3864 193.953 53.9304 194.131 54.3821 194.486C54.8366 194.838 55.1832 195.35 55.4219 196.02C55.6634 196.688 55.7841 197.493 55.7841 198.436C55.7841 199.385 55.6648 200.195 55.4261 200.865C55.1875 201.533 54.8423 202.043 54.3906 202.395C53.9389 202.745 53.392 202.919 52.75 202.919ZM52.75 201.982C53.3864 201.982 53.8807 201.675 54.233 201.061C54.5852 200.448 54.7614 199.573 54.7614 198.436C54.7614 197.681 54.6804 197.037 54.5185 196.506C54.3594 195.975 54.1293 195.57 53.8281 195.291C53.5298 195.013 53.1705 194.874 52.75 194.874C52.1193 194.874 51.6264 195.185 51.2713 195.807C50.9162 196.426 50.7386 197.303 50.7386 198.436C50.7386 199.192 50.8182 199.834 50.9773 200.362C51.1364 200.891 51.3651 201.293 51.6634 201.568C51.9645 201.844 52.3267 201.982 52.75 201.982ZM60.25 202.919C59.608 202.919 59.0611 202.745 58.6094 202.395C58.1577 202.043 57.8125 201.533 57.5739 200.865C57.3352 200.195 57.2159 199.385 57.2159 198.436C57.2159 197.493 57.3352 196.688 57.5739 196.02C57.8153 195.35 58.1619 194.838 58.6136 194.486C59.0682 194.131 59.6136 193.953 60.25 193.953C60.8864 193.953 61.4304 194.131 61.8821 194.486C62.3366 194.838 62.6832 195.35 62.9219 196.02C63.1634 196.688 63.2841 197.493 63.2841 198.436C63.2841 199.385 63.1648 200.195 62.9261 200.865C62.6875 201.533 62.3423 202.043 61.8906 202.395C61.4389 202.745 60.892 202.919 60.25 202.919ZM60.25 201.982C60.8864 201.982 61.3807 201.675 61.733 201.061C62.0852 200.448 62.2614 199.573 62.2614 198.436C62.2614 197.681 62.1804 197.037 62.0185 196.506C61.8594 195.975 61.6293 195.57 61.3281 195.291C61.0298 195.013 60.6705 194.874 60.25 194.874C59.6193 194.874 59.1264 195.185 58.7713 195.807C58.4162 196.426 58.2386 197.303 58.2386 198.436C58.2386 199.192 58.3182 199.834 58.4773 200.362C58.6364 200.891 58.8651 201.293 59.1634 201.568C59.4645 201.844 59.8267 201.982 60.25 201.982Z" fill="#697077"/>
<line x1="72" y1="197.8" x2="519.192" y2="197.8" stroke="#DDE1E6"/>
<path d="M45.3299 228.119C44.8299 228.119 44.3796 228.02 43.979 227.821C43.5785 227.622 43.2575 227.349 43.016 227.003C42.7745 226.656 42.6424 226.261 42.6197 225.818H43.6424C43.6822 226.213 43.8612 226.54 44.1793 226.798C44.5004 227.054 44.8839 227.182 45.3299 227.182C45.6879 227.182 46.006 227.098 46.2844 226.93C46.5657 226.763 46.7859 226.533 46.945 226.24C47.1069 225.945 47.1879 225.611 47.1879 225.239C47.1879 224.858 47.104 224.518 46.9364 224.22C46.7717 223.919 46.5444 223.682 46.2546 223.509C45.9648 223.335 45.6339 223.247 45.2617 223.244C44.9947 223.241 44.7205 223.283 44.4393 223.368C44.158 223.45 43.9265 223.557 43.7447 223.688L42.756 223.568L43.2844 219.273H47.8185V220.21H44.1708L43.864 222.784H43.9151C44.0941 222.642 44.3185 222.524 44.5884 222.43C44.8583 222.337 45.1396 222.29 45.4322 222.29C45.9663 222.29 46.4421 222.418 46.8597 222.673C47.2802 222.926 47.6097 223.273 47.8484 223.713C48.0898 224.153 48.2106 224.656 48.2106 225.222C48.2106 225.778 48.0856 226.276 47.8356 226.713C47.5884 227.148 47.2475 227.491 46.8129 227.744C46.3782 227.994 45.8839 228.119 45.3299 228.119ZM52.75 228.119C52.108 228.119 51.5611 227.945 51.1094 227.595C50.6577 227.243 50.3125 226.733 50.0739 226.065C49.8352 225.395 49.7159 224.585 49.7159 223.636C49.7159 222.693 49.8352 221.888 50.0739 221.22C50.3153 220.55 50.6619 220.038 51.1136 219.686C51.5682 219.331 52.1136 219.153 52.75 219.153C53.3864 219.153 53.9304 219.331 54.3821 219.686C54.8366 220.038 55.1832 220.55 55.4219 221.22C55.6634 221.888 55.7841 222.693 55.7841 223.636C55.7841 224.585 55.6648 225.395 55.4261 226.065C55.1875 226.733 54.8423 227.243 54.3906 227.595C53.9389 227.945 53.392 228.119 52.75 228.119ZM52.75 227.182C53.3864 227.182 53.8807 226.875 54.233 226.261C54.5852 225.648 54.7614 224.773 54.7614 223.636C54.7614 222.881 54.6804 222.237 54.5185 221.706C54.3594 221.175 54.1293 220.77 53.8281 220.491C53.5298 220.213 53.1705 220.074 52.75 220.074C52.1193 220.074 51.6264 220.385 51.2713 221.007C50.9162 221.626 50.7386 222.503 50.7386 223.636C50.7386 224.392 50.8182 225.034 50.9773 225.562C51.1364 226.091 51.3651 226.493 51.6634 226.768C51.9645 227.044 52.3267 227.182 52.75 227.182ZM60.25 228.119C59.608 228.119 59.0611 227.945 58.6094 227.595C58.1577 227.243 57.8125 226.733 57.5739 226.065C57.3352 225.395 57.2159 224.585 57.2159 223.636C57.2159 222.693 57.3352 221.888 57.5739 221.22C57.8153 220.55 58.1619 220.038 58.6136 219.686C59.0682 219.331 59.6136 219.153 60.25 219.153C60.8864 219.153 61.4304 219.331 61.8821 219.686C62.3366 220.038 62.6832 220.55 62.9219 221.22C63.1634 221.888 63.2841 222.693 63.2841 223.636C63.2841 224.585 63.1648 225.395 62.9261 226.065C62.6875 226.733 62.3423 227.243 61.8906 227.595C61.4389 227.945 60.892 228.119 60.25 228.119ZM60.25 227.182C60.8864 227.182 61.3807 226.875 61.733 226.261C62.0852 225.648 62.2614 224.773 62.2614 223.636C62.2614 222.881 62.1804 222.237 62.0185 221.706C61.8594 221.175 61.6293 220.77 61.3281 220.491C61.0298 220.213 60.6705 220.074 60.25 220.074C59.6193 220.074 59.1264 220.385 58.7713 221.007C58.4162 221.626 58.2386 222.503 58.2386 223.636C58.2386 224.392 58.3182 225.034 58.4773 225.562C58.6364 226.091 58.8651 226.493 59.1634 226.768C59.4645 227.044 59.8267 227.182 60.25 227.182Z" fill="#697077"/>
<line x1="72" y1="223" x2="519.192" y2="223" stroke="#DDE1E6"/>
<path d="M41.9996 251.41V250.541L45.8349 244.473H46.4656V245.819H46.0394L43.1417 250.405V250.473H48.3065V251.41H41.9996ZM46.1076 253.2V251.146V250.741V244.473H47.1133V253.2H46.1076ZM52.75 253.319C52.108 253.319 51.5611 253.145 51.1094 252.795C50.6577 252.443 50.3125 251.933 50.0739 251.265C49.8352 250.595 49.7159 249.785 49.7159 248.836C49.7159 247.893 49.8352 247.088 50.0739 246.42C50.3153 245.75 50.6619 245.238 51.1136 244.886C51.5682 244.531 52.1136 244.353 52.75 244.353C53.3864 244.353 53.9304 244.531 54.3821 244.886C54.8366 245.238 55.1832 245.75 55.4219 246.42C55.6634 247.088 55.7841 247.893 55.7841 248.836C55.7841 249.785 55.6648 250.595 55.4261 251.265C55.1875 251.933 54.8423 252.443 54.3906 252.795C53.9389 253.145 53.392 253.319 52.75 253.319ZM52.75 252.382C53.3864 252.382 53.8807 252.075 54.233 251.461C54.5852 250.848 54.7614 249.973 54.7614 248.836C54.7614 248.081 54.6804 247.437 54.5185 246.906C54.3594 246.375 54.1293 245.97 53.8281 245.691C53.5298 245.413 53.1705 245.274 52.75 245.274C52.1193 245.274 51.6264 245.585 51.2713 246.207C50.9162 246.826 50.7386 247.703 50.7386 248.836C50.7386 249.592 50.8182 250.234 50.9773 250.763C51.1364 251.291 51.3651 251.693 51.6634 251.968C51.9645 252.244 52.3267 252.382 52.75 252.382ZM60.25 253.319C59.608 253.319 59.0611 253.145 58.6094 252.795C58.1577 252.443 57.8125 251.933 57.5739 251.265C57.3352 250.595 57.2159 249.785 57.2159 248.836C57.2159 247.893 57.3352 247.088 57.5739 246.42C57.8153 245.75 58.1619 245.238 58.6136 244.886C59.0682 244.531 59.6136 244.353 60.25 244.353C60.8864 244.353 61.4304 244.531 61.8821 244.886C62.3366 245.238 62.6832 245.75 62.9219 246.42C63.1634 247.088 63.2841 247.893 63.2841 248.836C63.2841 249.785 63.1648 250.595 62.9261 251.265C62.6875 251.933 62.3423 252.443 61.8906 252.795C61.4389 253.145 60.892 253.319 60.25 253.319ZM60.25 252.382C60.8864 252.382 61.3807 252.075 61.733 251.461C62.0852 250.848 62.2614 249.973 62.2614 248.836C62.2614 248.081 62.1804 247.437 62.0185 246.906C61.8594 246.375 61.6293 245.97 61.3281 245.691C61.0298 245.413 60.6705 245.274 60.25 245.274C59.6193 245.274 59.1264 245.585 58.7713 246.207C58.4162 246.826 58.2386 247.703 58.2386 248.836C58.2386 249.592 58.3182 250.234 58.4773 250.763C58.6364 251.291 58.8651 251.693 59.1634 251.968C59.4645 252.244 59.8267 252.382 60.25 252.382Z" fill="#697077"/>
<line x1="72" y1="248.2" x2="519.192" y2="248.2" stroke="#DDE1E6"/>
<path d="M45.2116 278.519C44.6491 278.519 44.1477 278.423 43.7074 278.23C43.2699 278.036 42.9219 277.768 42.6634 277.424C42.4077 277.078 42.2685 276.676 42.2457 276.218H43.3196C43.3423 276.499 43.4389 276.742 43.6094 276.947C43.7798 277.149 44.0028 277.305 44.2784 277.416C44.554 277.526 44.8594 277.582 45.1946 277.582C45.5696 277.582 45.902 277.516 46.1918 277.386C46.4815 277.255 46.7088 277.073 46.8736 276.84C47.0384 276.607 47.1207 276.337 47.1207 276.031C47.1207 275.71 47.0412 275.427 46.8821 275.183C46.723 274.936 46.4901 274.742 46.1832 274.603C45.8764 274.464 45.5014 274.394 45.0582 274.394H44.3594V273.457H45.0582C45.4048 273.457 45.7088 273.394 45.9702 273.269C46.2344 273.144 46.4403 272.968 46.5881 272.741C46.7386 272.514 46.8139 272.247 46.8139 271.94C46.8139 271.644 46.7486 271.387 46.6179 271.168C46.4872 270.95 46.3026 270.779 46.0639 270.657C45.8281 270.535 45.5497 270.474 45.2287 270.474C44.9276 270.474 44.6435 270.529 44.3764 270.64C44.1122 270.748 43.8963 270.906 43.7287 271.113C43.5611 271.318 43.4702 271.565 43.456 271.855H42.4332C42.4503 271.397 42.5881 270.997 42.8466 270.653C43.1051 270.306 43.4432 270.036 43.8608 269.843C44.2813 269.65 44.7429 269.553 45.2457 269.553C45.7855 269.553 46.2486 269.663 46.6349 269.882C47.0213 270.097 47.3182 270.383 47.5256 270.738C47.733 271.093 47.8366 271.477 47.8366 271.889C47.8366 272.38 47.7074 272.799 47.4489 273.146C47.1932 273.492 46.8452 273.732 46.4048 273.866V273.934C46.956 274.025 47.3864 274.259 47.696 274.637C48.0057 275.012 48.1605 275.477 48.1605 276.031C48.1605 276.505 48.0313 276.931 47.7727 277.309C47.517 277.684 47.1676 277.98 46.7244 278.195C46.2813 278.411 45.777 278.519 45.2116 278.519ZM52.75 278.519C52.108 278.519 51.5611 278.345 51.1094 277.995C50.6577 277.643 50.3125 277.133 50.0739 276.465C49.8352 275.795 49.7159 274.985 49.7159 274.036C49.7159 273.093 49.8352 272.288 50.0739 271.62C50.3153 270.95 50.6619 270.438 51.1136 270.086C51.5682 269.731 52.1136 269.553 52.75 269.553C53.3864 269.553 53.9304 269.731 54.3821 270.086C54.8366 270.438 55.1832 270.95 55.4219 271.62C55.6634 272.288 55.7841 273.093 55.7841 274.036C55.7841 274.985 55.6648 275.795 55.4261 276.465C55.1875 277.133 54.8423 277.643 54.3906 277.995C53.9389 278.345 53.392 278.519 52.75 278.519ZM52.75 277.582C53.3864 277.582 53.8807 277.275 54.233 276.661C54.5852 276.048 54.7614 275.173 54.7614 274.036C54.7614 273.281 54.6804 272.637 54.5185 272.106C54.3594 271.575 54.1293 271.17 53.8281 270.891C53.5298 270.613 53.1705 270.474 52.75 270.474C52.1193 270.474 51.6264 270.785 51.2713 271.407C50.9162 272.026 50.7386 272.903 50.7386 274.036C50.7386 274.792 50.8182 275.434 50.9773 275.962C51.1364 276.491 51.3651 276.893 51.6634 277.168C51.9645 277.444 52.3267 277.582 52.75 277.582ZM60.25 278.519C59.608 278.519 59.0611 278.345 58.6094 277.995C58.1577 277.643 57.8125 277.133 57.5739 276.465C57.3352 275.795 57.2159 274.985 57.2159 274.036C57.2159 273.093 57.3352 272.288 57.5739 271.62C57.8153 270.95 58.1619 270.438 58.6136 270.086C59.0682 269.731 59.6136 269.553 60.25 269.553C60.8864 269.553 61.4304 269.731 61.8821 270.086C62.3366 270.438 62.6832 270.95 62.9219 271.62C63.1634 272.288 63.2841 273.093 63.2841 274.036C63.2841 274.985 63.1648 275.795 62.9261 276.465C62.6875 277.133 62.3423 277.643 61.8906 277.995C61.4389 278.345 60.892 278.519 60.25 278.519ZM60.25 277.582C60.8864 277.582 61.3807 277.275 61.733 276.661C62.0852 276.048 62.2614 275.173 62.2614 274.036C62.2614 273.281 62.1804 272.637 62.0185 272.106C61.8594 271.575 61.6293 271.17 61.3281 270.891C61.0298 270.613 60.6705 270.474 60.25 270.474C59.6193 270.474 59.1264 270.785 58.7713 271.407C58.4162 272.026 58.2386 272.903 58.2386 274.036C58.2386 274.792 58.3182 275.434 58.4773 275.962C58.6364 276.491 58.8651 276.893 59.1634 277.168C59.4645 277.444 59.8267 277.582 60.25 277.582Z" fill="#697077"/>
<line x1="72" y1="273.4" x2="519.192" y2="273.4" stroke="#DDE1E6"/>
<path d="M42.6378 303.6V302.833L45.5185 299.68C45.8565 299.31 46.1349 298.989 46.3537 298.716C46.5724 298.441 46.7344 298.182 46.8395 297.941C46.9474 297.697 47.0014 297.441 47.0014 297.174C47.0014 296.867 46.9276 296.601 46.7798 296.377C46.6349 296.153 46.4361 295.979 46.1832 295.857C45.9304 295.735 45.6463 295.674 45.331 295.674C44.9957 295.674 44.7031 295.743 44.4531 295.883C44.206 296.019 44.0142 296.211 43.8778 296.458C43.7443 296.705 43.6776 296.995 43.6776 297.327H42.6719C42.6719 296.816 42.7898 296.367 43.0256 295.981C43.2614 295.594 43.5824 295.293 43.9886 295.077C44.3977 294.861 44.8565 294.753 45.3651 294.753C45.8764 294.753 46.3295 294.861 46.7244 295.077C47.1193 295.293 47.429 295.584 47.6534 295.951C47.8778 296.317 47.9901 296.725 47.9901 297.174C47.9901 297.495 47.9318 297.809 47.8153 298.116C47.7017 298.42 47.5028 298.759 47.2188 299.134C46.9375 299.506 46.5469 299.961 46.0469 300.498L44.0866 302.594V302.662H48.1435V303.6H42.6378ZM52.75 303.719C52.108 303.719 51.5611 303.545 51.1094 303.195C50.6577 302.843 50.3125 302.333 50.0739 301.665C49.8352 300.995 49.7159 300.185 49.7159 299.236C49.7159 298.293 49.8352 297.488 50.0739 296.82C50.3153 296.15 50.6619 295.638 51.1136 295.286C51.5682 294.931 52.1136 294.753 52.75 294.753C53.3864 294.753 53.9304 294.931 54.3821 295.286C54.8366 295.638 55.1832 296.15 55.4219 296.82C55.6634 297.488 55.7841 298.293 55.7841 299.236C55.7841 300.185 55.6648 300.995 55.4261 301.665C55.1875 302.333 54.8423 302.843 54.3906 303.195C53.9389 303.545 53.392 303.719 52.75 303.719ZM52.75 302.782C53.3864 302.782 53.8807 302.475 54.233 301.861C54.5852 301.248 54.7614 300.373 54.7614 299.236C54.7614 298.481 54.6804 297.837 54.5185 297.306C54.3594 296.775 54.1293 296.37 53.8281 296.091C53.5298 295.813 53.1705 295.674 52.75 295.674C52.1193 295.674 51.6264 295.985 51.2713 296.607C50.9162 297.226 50.7386 298.103 50.7386 299.236C50.7386 299.992 50.8182 300.634 50.9773 301.162C51.1364 301.691 51.3651 302.093 51.6634 302.368C51.9645 302.644 52.3267 302.782 52.75 302.782ZM60.25 303.719C59.608 303.719 59.0611 303.545 58.6094 303.195C58.1577 302.843 57.8125 302.333 57.5739 301.665C57.3352 300.995 57.2159 300.185 57.2159 299.236C57.2159 298.293 57.3352 297.488 57.5739 296.82C57.8153 296.15 58.1619 295.638 58.6136 295.286C59.0682 294.931 59.6136 294.753 60.25 294.753C60.8864 294.753 61.4304 294.931 61.8821 295.286C62.3366 295.638 62.6832 296.15 62.9219 296.82C63.1634 297.488 63.2841 298.293 63.2841 299.236C63.2841 300.185 63.1648 300.995 62.9261 301.665C62.6875 302.333 62.3423 302.843 61.8906 303.195C61.4389 303.545 60.892 303.719 60.25 303.719ZM60.25 302.782C60.8864 302.782 61.3807 302.475 61.733 301.861C62.0852 301.248 62.2614 300.373 62.2614 299.236C62.2614 298.481 62.1804 297.837 62.0185 297.306C61.8594 296.775 61.6293 296.37 61.3281 296.091C61.0298 295.813 60.6705 295.674 60.25 295.674C59.6193 295.674 59.1264 295.985 58.7713 296.607C58.4162 297.226 58.2386 298.103 58.2386 299.236C58.2386 299.992 58.3182 300.634 58.4773 301.162C58.6364 301.691 58.8651 302.093 59.1634 302.368C59.4645 302.644 59.8267 302.782 60.25 302.782Z" fill="#697077"/>
<line x1="72" y1="298.6" x2="519.192" y2="298.6" stroke="#DDE1E6"/>
<path d="M47.3935 320.073V328.8H46.3366V321.181H46.2855L44.1548 322.595V321.522L46.3366 320.073H47.3935ZM52.75 328.919C52.108 328.919 51.5611 328.745 51.1094 328.395C50.6577 328.043 50.3125 327.533 50.0739 326.865C49.8352 326.195 49.7159 325.385 49.7159 324.436C49.7159 323.493 49.8352 322.688 50.0739 322.02C50.3153 321.35 50.6619 320.838 51.1136 320.486C51.5682 320.131 52.1136 319.953 52.75 319.953C53.3864 319.953 53.9304 320.131 54.3821 320.486C54.8366 320.838 55.1832 321.35 55.4219 322.02C55.6634 322.688 55.7841 323.493 55.7841 324.436C55.7841 325.385 55.6648 326.195 55.4261 326.865C55.1875 327.533 54.8423 328.043 54.3906 328.395C53.9389 328.745 53.392 328.919 52.75 328.919ZM52.75 327.982C53.3864 327.982 53.8807 327.675 54.233 327.061C54.5852 326.448 54.7614 325.573 54.7614 324.436C54.7614 323.681 54.6804 323.037 54.5185 322.506C54.3594 321.975 54.1293 321.57 53.8281 321.291C53.5298 321.013 53.1705 320.874 52.75 320.874C52.1193 320.874 51.6264 321.185 51.2713 321.807C50.9162 322.426 50.7386 323.303 50.7386 324.436C50.7386 325.192 50.8182 325.834 50.9773 326.362C51.1364 326.891 51.3651 327.293 51.6634 327.568C51.9645 327.844 52.3267 327.982 52.75 327.982ZM60.25 328.919C59.608 328.919 59.0611 328.745 58.6094 328.395C58.1577 328.043 57.8125 327.533 57.5739 326.865C57.3352 326.195 57.2159 325.385 57.2159 324.436C57.2159 323.493 57.3352 322.688 57.5739 322.02C57.8153 321.35 58.1619 320.838 58.6136 320.486C59.0682 320.131 59.6136 319.953 60.25 319.953C60.8864 319.953 61.4304 320.131 61.8821 320.486C62.3366 320.838 62.6832 321.35 62.9219 322.02C63.1634 322.688 63.2841 323.493 63.2841 324.436C63.2841 325.385 63.1648 326.195 62.9261 326.865C62.6875 327.533 62.3423 328.043 61.8906 328.395C61.4389 328.745 60.892 328.919 60.25 328.919ZM60.25 327.982C60.8864 327.982 61.3807 327.675 61.733 327.061C62.0852 326.448 62.2614 325.573 62.2614 324.436C62.2614 323.681 62.1804 323.037 62.0185 322.506C61.8594 321.975 61.6293 321.57 61.3281 321.291C61.0298 321.013 60.6705 320.874 60.25 320.874C59.6193 320.874 59.1264 321.185 58.7713 321.807C58.4162 322.426 58.2386 323.303 58.2386 324.436C58.2386 325.192 58.3182 325.834 58.4773 326.362C58.6364 326.891 58.8651 327.293 59.1634 327.568C59.4645 327.844 59.8267 327.982 60.25 327.982Z" fill="#697077"/>
<line x1="72" y1="323.8" x2="519.192" y2="323.8" stroke="#DDE1E6"/>
<path d="M60.25 354.119C59.608 354.119 59.0611 353.945 58.6094 353.595C58.1577 353.243 57.8125 352.733 57.5739 352.065C57.3352 351.395 57.2159 350.585 57.2159 349.636C57.2159 348.693 57.3352 347.888 57.5739 347.22C57.8153 346.55 58.1619 346.038 58.6136 345.686C59.0682 345.331 59.6136 345.153 60.25 345.153C60.8864 345.153 61.4304 345.331 61.8821 345.686C62.3366 346.038 62.6832 346.55 62.9219 347.22C63.1634 347.888 63.2841 348.693 63.2841 349.636C63.2841 350.585 63.1648 351.395 62.9261 352.065C62.6875 352.733 62.3423 353.243 61.8906 353.595C61.4389 353.945 60.892 354.119 60.25 354.119ZM60.25 353.182C60.8864 353.182 61.3807 352.875 61.733 352.261C62.0852 351.648 62.2614 350.773 62.2614 349.636C62.2614 348.881 62.1804 348.237 62.0185 347.706C61.8594 347.175 61.6293 346.77 61.3281 346.491C61.0298 346.213 60.6705 346.074 60.25 346.074C59.6193 346.074 59.1264 346.385 58.7713 347.007C58.4162 347.626 58.2386 348.503 58.2386 349.636C58.2386 350.392 58.3182 351.034 58.4773 351.562C58.6364 352.091 58.8651 352.493 59.1634 352.768C59.4645 353.044 59.8267 353.182 60.25 353.182Z" fill="#697077"/>
<line x1="72" y1="349" x2="519.192" y2="349" stroke="#DDE1E6"/>
<path d="M73 288.708L92.5298 278.423L111.711 260.149L130.892 251.069L150.422 269.082L169.603 265.079L189.132 260.149L208.662 231.142H227.843L247.373 240.394L266.554 254.405L286.084 244.397L305.265 199.696L324.795 191.023L343.976 203.703L363.157 208.37L382.687 199.696L401.868 217.71L421.397 220.379L440.578 231.142L460.108 249.067L479.289 240.394L498.819 212.373L518 157.008" stroke="#A2A9B0" stroke-width="2" stroke-linecap="round" stroke-linejoin="round"/>
<path d="M73 288.708L92.5298 278.423L111.711 260.149L130.892 251.069L150.422 269.082L169.603 265.079L189.132 260.149L208.662 231.142H227.843L247.373 240.394L266.554 254.405L286.084 244.397L305.265 199.696L324.795 191.023L343.976 203.703L363.157 208.37L382.687 199.696L401.868 217.71L421.397 220.379L440.578 231.142L460.108 249.067L479.289 240.394L498.819 212.373L518 157.008" stroke="#A2A9B0" stroke-width="8" stroke-linecap="round" stroke-linejoin="round" stroke-dasharray="0.01 50"/>
<path d="M73 288.708L92.5298 278.423L111.711 260.149L130.892 251.069L150.422 269.082L169.603 265.079L189.132 260.149L208.662 231.142H227.843L247.373 240.394L266.554 254.405L286.084 244.397L305.265 199.696L324.795 191.023L343.976 203.703L363.157 208.37L382.687 199.696L401.868 217.71L421.397 220.379L440.578 231.142L460.108 249.067L479.289 240.394L498.819 212.373L518 157.008" stroke="white" stroke-width="6" stroke-linecap="round" stroke-linejoin="round" stroke-dasharray="0.01 50"/>
<path d="M73 302.708L92.5298 258.068L111.711 240.807L130.892 218.615L150.422 221.081L169.603 211.218L189.132 221.081L208.662 211.218L227.843 216.15H247.373L266.554 224.78H286.084L305.265 211.218L324.795 200.742L343.976 193.958H363.157L382.687 186.56L401.868 178.546L421.397 186.56L440.578 200.742L460.108 229.711L479.289 227.245L496.717 201.706L507.359 172.382L518 128.008" stroke="#458FF6" stroke-width="2" stroke-linecap="round" stroke-linejoin="round"/>
<path d="M73 302.708L92.5298 258.068L111.711 240.807L130.892 218.615L150.422 221.081L169.603 211.218L189.132 221.081L208.662 211.218L227.843 216.15H247.373L266.554 224.78H286.084L305.265 211.218L324.795 200.742L343.976 193.958H363.157L382.687 186.56L401.868 178.546L421.397 186.56L440.578 200.742L460.108 229.711L479.289 227.245L496.717 201.706L507.359 172.382L518 128.008" stroke="#458FF6" stroke-width="8" stroke-linecap="round" stroke-linejoin="round" stroke-dasharray="0.01 50"/>
<path d="M73 302.708L92.5298 258.068L111.711 240.807L130.892 218.615L150.422 221.081L169.603 211.218L189.132 221.081L208.662 211.218L227.843 216.15H247.373L266.554 224.78H286.084L305.265 211.218L324.795 200.742L343.976 193.958H363.157L382.687 186.56L401.868 178.546L421.397 186.56L440.578 200.742L460.108 229.711L479.289 227.245L496.717 201.706L507.359 172.382L518 128.008" stroke="white" stroke-width="6" stroke-linecap="round" stroke-linejoin="round" stroke-dasharray="0.01 50"/>
<path d="M68.9847 377H67.9279V369.21H66.07C65.5984 369.21 65.2191 369.283 64.9322 369.428C64.6452 369.57 64.4364 369.771 64.3058 370.033C64.1751 370.294 64.1097 370.599 64.1097 370.949C64.1097 371.298 64.1737 371.599 64.3015 371.852C64.4322 372.102 64.6396 372.295 64.9237 372.432C65.2106 372.568 65.587 372.636 66.0529 372.636H68.4052V373.591H66.0188C65.3427 373.591 64.7873 373.479 64.3526 373.254C63.918 373.027 63.5955 372.714 63.3853 372.317C63.1751 371.919 63.07 371.463 63.07 370.949C63.07 370.435 63.1751 369.976 63.3853 369.572C63.5955 369.169 63.9194 368.852 64.3569 368.622C64.7944 368.389 65.354 368.273 66.0359 368.273H68.9847V377ZM64.8768 373.08H66.07L63.9563 377H62.729L64.8768 373.08ZM75.348 373.267V374.205H71.7344V373.267H75.348ZM71.973 370.455V377H70.9673V370.455H71.973ZM76.1151 370.455V377H75.1094V370.455H76.1151ZM77.9517 377V370.455H80.6278C81.3324 370.455 81.892 370.614 82.3068 370.932C82.7216 371.25 82.929 371.67 82.929 372.193C82.929 372.591 82.8111 372.899 82.5753 373.118C82.3395 373.334 82.0369 373.48 81.6676 373.557C81.9091 373.591 82.1435 373.676 82.3707 373.812C82.6009 373.949 82.7912 374.136 82.9418 374.375C83.0923 374.611 83.1676 374.901 83.1676 375.244C83.1676 375.58 83.0824 375.879 82.9119 376.143C82.7415 376.408 82.4972 376.616 82.179 376.77C81.8608 376.923 81.4801 377 81.0369 377H77.9517ZM78.9062 376.08H81.0369C81.3835 376.08 81.6548 375.997 81.8509 375.832C82.0469 375.668 82.1449 375.443 82.1449 375.159C82.1449 374.821 82.0469 374.555 81.8509 374.362C81.6548 374.166 81.3835 374.068 81.0369 374.068H78.9062V376.08ZM78.9062 373.199H80.6278C80.8977 373.199 81.1293 373.162 81.3224 373.088C81.5156 373.011 81.6634 372.903 81.7656 372.764C81.8707 372.622 81.9233 372.455 81.9233 372.261C81.9233 371.986 81.8082 371.77 81.5781 371.614C81.348 371.455 81.0313 371.375 80.6278 371.375H78.9062V373.199Z" fill="#697077"/>
<path d="M105.098 369.312H106.479C107.126 369.312 107.702 369.457 108.204 369.747C108.707 370.037 109.102 370.44 109.389 370.957C109.676 371.474 109.819 372.074 109.819 372.756C109.819 373.438 109.676 374.038 109.389 374.558C109.102 375.078 108.707 375.484 108.204 375.777C107.702 376.07 107.126 376.216 106.479 376.216H105.098C104.45 376.216 103.875 376.071 103.372 375.781C102.869 375.491 102.474 375.088 102.187 374.571C101.9 374.054 101.757 373.455 101.757 372.773C101.757 372.091 101.9 371.49 102.187 370.97C102.474 370.45 102.869 370.044 103.372 369.751C103.875 369.459 104.45 369.312 105.098 369.312ZM105.098 370.25C104.604 370.25 104.186 370.354 103.845 370.561C103.507 370.768 103.25 371.061 103.074 371.439C102.9 371.817 102.814 372.261 102.814 372.773C102.814 373.278 102.9 373.719 103.074 374.094C103.25 374.469 103.507 374.76 103.845 374.967C104.186 375.175 104.604 375.278 105.098 375.278H106.479C106.973 375.278 107.389 375.175 107.727 374.967C108.068 374.76 108.325 374.467 108.498 374.089C108.675 373.712 108.763 373.267 108.763 372.756C108.763 372.25 108.675 371.81 108.498 371.435C108.325 371.06 108.068 370.768 107.727 370.561C107.389 370.354 106.973 370.25 106.479 370.25H105.098ZM106.325 368.119V377.358H105.268V368.119H106.325ZM114.198 377.136C113.567 377.136 113.023 376.997 112.566 376.719C112.111 376.438 111.76 376.045 111.513 375.543C111.269 375.037 111.147 374.449 111.147 373.778C111.147 373.108 111.269 372.517 111.513 372.006C111.76 371.491 112.104 371.091 112.545 370.804C112.988 370.514 113.505 370.369 114.096 370.369C114.437 370.369 114.773 370.426 115.106 370.54C115.438 370.653 115.741 370.838 116.013 371.094C116.286 371.347 116.503 371.682 116.665 372.099C116.827 372.517 116.908 373.031 116.908 373.642V374.068H111.863V373.199H115.885C115.885 372.83 115.812 372.5 115.664 372.21C115.519 371.92 115.312 371.692 115.042 371.524C114.775 371.357 114.459 371.273 114.096 371.273C113.695 371.273 113.349 371.372 113.056 371.571C112.766 371.767 112.543 372.023 112.387 372.338C112.231 372.653 112.153 372.991 112.153 373.352V373.932C112.153 374.426 112.238 374.845 112.408 375.189C112.581 375.53 112.822 375.79 113.128 375.969C113.435 376.145 113.792 376.233 114.198 376.233C114.462 376.233 114.701 376.196 114.914 376.122C115.13 376.045 115.316 375.932 115.472 375.781C115.628 375.628 115.749 375.437 115.834 375.21L116.806 375.483C116.704 375.812 116.532 376.102 116.29 376.352C116.049 376.599 115.751 376.793 115.395 376.932C115.04 377.068 114.641 377.136 114.198 377.136ZM118.438 377V370.455H121.114C121.819 370.455 122.378 370.614 122.793 370.932C123.208 371.25 123.415 371.67 123.415 372.193C123.415 372.591 123.297 372.899 123.062 373.118C122.826 373.334 122.523 373.48 122.154 373.557C122.395 373.591 122.63 373.676 122.857 373.812C123.087 373.949 123.278 374.136 123.428 374.375C123.579 374.611 123.654 374.901 123.654 375.244C123.654 375.58 123.569 375.879 123.398 376.143C123.228 376.408 122.983 376.616 122.665 376.77C122.347 376.923 121.966 377 121.523 377H118.438ZM119.393 376.08H121.523C121.87 376.08 122.141 375.997 122.337 375.832C122.533 375.668 122.631 375.443 122.631 375.159C122.631 374.821 122.533 374.555 122.337 374.362C122.141 374.166 121.87 374.068 121.523 374.068H119.393V376.08ZM119.393 373.199H121.114C121.384 373.199 121.616 373.162 121.809 373.088C122.002 373.011 122.15 372.903 122.252 372.764C122.357 372.622 122.41 372.455 122.41 372.261C122.41 371.986 122.295 371.77 122.064 371.614C121.834 371.455 121.518 371.375 121.114 371.375H119.393V373.199Z" fill="#697077"/>
<path d="M138.132 368.273H139.393L142.359 375.517H142.462L145.427 368.273H146.689V377H145.7V370.369H145.615L142.888 377H141.933L139.206 370.369H139.121V377H138.132V368.273ZM150.598 377.153C150.183 377.153 149.806 377.075 149.468 376.919C149.13 376.76 148.862 376.531 148.663 376.233C148.464 375.932 148.365 375.568 148.365 375.142C148.365 374.767 148.438 374.463 148.586 374.23C148.734 373.994 148.931 373.81 149.179 373.676C149.426 373.543 149.698 373.443 149.997 373.378C150.298 373.31 150.6 373.256 150.904 373.216C151.302 373.165 151.625 373.126 151.872 373.101C152.122 373.072 152.304 373.026 152.417 372.96C152.534 372.895 152.592 372.781 152.592 372.619V372.585C152.592 372.165 152.477 371.838 152.247 371.605C152.019 371.372 151.674 371.256 151.211 371.256C150.731 371.256 150.355 371.361 150.082 371.571C149.809 371.781 149.617 372.006 149.507 372.244L148.552 371.903C148.723 371.506 148.95 371.196 149.234 370.974C149.521 370.75 149.833 370.594 150.171 370.506C150.512 370.415 150.848 370.369 151.177 370.369C151.387 370.369 151.629 370.395 151.902 370.446C152.177 370.494 152.443 370.595 152.698 370.749C152.957 370.902 153.171 371.134 153.342 371.443C153.512 371.753 153.598 372.168 153.598 372.688V377H152.592V376.114H152.541C152.473 376.256 152.359 376.408 152.2 376.57C152.041 376.732 151.829 376.869 151.565 376.983C151.301 377.097 150.978 377.153 150.598 377.153ZM150.751 376.25C151.149 376.25 151.484 376.172 151.757 376.016C152.032 375.859 152.24 375.658 152.379 375.411C152.521 375.163 152.592 374.903 152.592 374.631V373.71C152.549 373.761 152.456 373.808 152.311 373.851C152.169 373.891 152.004 373.926 151.816 373.957C151.632 373.986 151.451 374.011 151.275 374.034C151.102 374.054 150.961 374.071 150.853 374.085C150.592 374.119 150.348 374.175 150.12 374.251C149.896 374.325 149.714 374.437 149.575 374.588C149.438 374.736 149.37 374.937 149.37 375.193C149.37 375.543 149.5 375.807 149.758 375.986C150.019 376.162 150.35 376.25 150.751 376.25ZM155.433 379.455V370.455H156.405V371.494H156.524C156.598 371.381 156.7 371.236 156.831 371.06C156.964 370.881 157.155 370.722 157.402 370.582C157.652 370.44 157.99 370.369 158.416 370.369C158.967 370.369 159.453 370.507 159.873 370.783C160.294 371.058 160.622 371.449 160.858 371.955C161.094 372.46 161.212 373.057 161.212 373.744C161.212 374.438 161.094 375.038 160.858 375.547C160.622 376.053 160.295 376.445 159.878 376.723C159.46 376.999 158.979 377.136 158.433 377.136C158.013 377.136 157.676 377.067 157.423 376.928C157.17 376.786 156.976 376.625 156.839 376.446C156.703 376.264 156.598 376.114 156.524 375.994H156.439V379.455H155.433ZM156.422 373.727C156.422 374.222 156.494 374.658 156.639 375.036C156.784 375.411 156.996 375.705 157.274 375.918C157.552 376.128 157.893 376.233 158.297 376.233C158.717 376.233 159.068 376.122 159.349 375.901C159.633 375.676 159.847 375.375 159.989 374.997C160.133 374.616 160.206 374.193 160.206 373.727C160.206 373.267 160.135 372.852 159.993 372.483C159.854 372.111 159.642 371.817 159.358 371.601C159.077 371.382 158.723 371.273 158.297 371.273C157.888 371.273 157.544 371.376 157.266 371.584C156.987 371.788 156.777 372.075 156.635 372.445C156.493 372.811 156.422 373.239 156.422 373.727ZM161.89 371.392V370.455H167.208V371.392H165.061V377H164.055V371.392H161.89Z" fill="#697077"/>
<path d="M182.392 377H181.284L184.489 368.273H185.58L188.784 377H187.676L185.068 369.653H185L182.392 377ZM182.801 373.591H187.267V374.528H182.801V373.591ZM190.007 377V370.455H195.155V377H194.149V371.392H191.013V377H190.007ZM196.992 379.455V370.455H197.963V371.494H198.083C198.157 371.381 198.259 371.236 198.389 371.06C198.523 370.881 198.713 370.722 198.96 370.582C199.21 370.44 199.549 370.369 199.975 370.369C200.526 370.369 201.012 370.507 201.432 370.783C201.853 371.058 202.181 371.449 202.416 371.955C202.652 372.46 202.77 373.057 202.77 373.744C202.77 374.438 202.652 375.038 202.416 375.547C202.181 376.053 201.854 376.445 201.436 376.723C201.019 376.999 200.537 377.136 199.992 377.136C199.571 377.136 199.235 377.067 198.982 376.928C198.729 376.786 198.534 376.625 198.398 376.446C198.262 376.264 198.157 376.114 198.083 375.994H197.997V379.455H196.992ZM197.98 373.727C197.98 374.222 198.053 374.658 198.198 375.036C198.343 375.411 198.554 375.705 198.833 375.918C199.111 376.128 199.452 376.233 199.855 376.233C200.276 376.233 200.627 376.122 200.908 375.901C201.192 375.676 201.405 375.375 201.547 374.997C201.692 374.616 201.764 374.193 201.764 373.727C201.764 373.267 201.693 372.852 201.551 372.483C201.412 372.111 201.201 371.817 200.916 371.601C200.635 371.382 200.282 371.273 199.855 371.273C199.446 371.273 199.103 371.376 198.824 371.584C198.546 371.788 198.335 372.075 198.193 372.445C198.051 372.811 197.98 373.239 197.98 373.727Z" fill="#697077"/>
<path d="M220.704 368.273H221.966L224.932 375.517H225.034L228 368.273H229.261V377H228.272V370.369H228.187L225.46 377H224.505L221.778 370.369H221.693V377H220.704V368.273ZM233.17 377.153C232.755 377.153 232.379 377.075 232.041 376.919C231.703 376.76 231.434 376.531 231.235 376.233C231.036 375.932 230.937 375.568 230.937 375.142C230.937 374.767 231.011 374.463 231.158 374.23C231.306 373.994 231.504 373.81 231.751 373.676C231.998 373.543 232.271 373.443 232.569 373.378C232.87 373.31 233.173 373.256 233.477 373.216C233.874 373.165 234.197 373.126 234.444 373.101C234.694 373.072 234.876 373.026 234.989 372.96C235.106 372.895 235.164 372.781 235.164 372.619V372.585C235.164 372.165 235.049 371.838 234.819 371.605C234.592 371.372 234.247 371.256 233.783 371.256C233.303 371.256 232.927 371.361 232.654 371.571C232.381 371.781 232.19 372.006 232.079 372.244L231.124 371.903C231.295 371.506 231.522 371.196 231.806 370.974C232.093 370.75 232.406 370.594 232.744 370.506C233.085 370.415 233.42 370.369 233.749 370.369C233.96 370.369 234.201 370.395 234.474 370.446C234.749 370.494 235.015 370.595 235.271 370.749C235.529 370.902 235.744 371.134 235.914 371.443C236.085 371.753 236.17 372.168 236.17 372.688V377H235.164V376.114H235.113C235.045 376.256 234.931 376.408 234.772 376.57C234.613 376.732 234.401 376.869 234.137 376.983C233.873 377.097 233.551 377.153 233.17 377.153ZM233.323 376.25C233.721 376.25 234.056 376.172 234.329 376.016C234.604 375.859 234.812 375.658 234.951 375.411C235.093 375.163 235.164 374.903 235.164 374.631V373.71C235.122 373.761 235.028 373.808 234.883 373.851C234.741 373.891 234.576 373.926 234.389 373.957C234.204 373.986 234.024 374.011 233.847 374.034C233.674 374.054 233.533 374.071 233.426 374.085C233.164 374.119 232.92 374.175 232.693 374.251C232.468 374.325 232.286 374.437 232.147 374.588C232.011 374.736 231.943 374.937 231.943 375.193C231.943 375.543 232.072 375.807 232.33 375.986C232.592 376.162 232.923 376.25 233.323 376.25ZM239.011 375.517L242.165 370.455H243.324V377H242.318V371.938L239.182 377H238.005V370.455H239.011V375.517ZM241.5 368.273H242.437C242.437 368.733 242.278 369.109 241.96 369.402C241.642 369.695 241.21 369.841 240.665 369.841C240.128 369.841 239.7 369.695 239.382 369.402C239.066 369.109 238.909 368.733 238.909 368.273H239.846C239.846 368.494 239.907 368.689 240.03 368.857C240.155 369.024 240.366 369.108 240.665 369.108C240.963 369.108 241.176 369.024 241.304 368.857C241.434 368.689 241.5 368.494 241.5 368.273Z" fill="#697077"/>
<path d="M256.563 368.273H257.602V375.142H257.688L262.46 368.273H263.483V377H262.426V370.148H262.341L257.585 377H256.563V368.273ZM268.598 373.318V374.256H265.138V373.318H268.598ZM265.99 370.455V377H264.984V370.455H265.99ZM270.609 377.136C270.018 377.136 269.5 376.996 269.054 376.714C268.611 376.433 268.264 376.04 268.014 375.534C267.767 375.028 267.643 374.437 267.643 373.761C267.643 373.08 267.767 372.484 268.014 371.976C268.264 371.467 268.611 371.072 269.054 370.791C269.5 370.51 270.018 370.369 270.609 370.369C271.2 370.369 271.717 370.51 272.16 370.791C272.606 371.072 272.953 371.467 273.2 371.976C273.45 372.484 273.575 373.08 273.575 373.761C273.575 374.437 273.45 375.028 273.2 375.534C272.953 376.04 272.606 376.433 272.16 376.714C271.717 376.996 271.2 377.136 270.609 377.136ZM270.609 376.233C271.058 376.233 271.427 376.118 271.717 375.888C272.007 375.658 272.221 375.355 272.361 374.98C272.5 374.605 272.569 374.199 272.569 373.761C272.569 373.324 272.5 372.916 272.361 372.538C272.221 372.161 272.007 371.855 271.717 371.622C271.427 371.389 271.058 371.273 270.609 371.273C270.16 371.273 269.791 371.389 269.501 371.622C269.211 371.855 268.997 372.161 268.858 372.538C268.719 372.916 268.649 373.324 268.649 373.761C268.649 374.199 268.719 374.605 268.858 374.98C268.997 375.355 269.211 375.658 269.501 375.888C269.791 376.118 270.16 376.233 270.609 376.233ZM279.592 373.267V374.205H275.979V373.267H279.592ZM276.217 370.455V377H275.211V370.455H276.217ZM280.359 370.455V377H279.354V370.455H280.359ZM283.065 372.824H284.94C285.707 372.824 286.294 373.018 286.7 373.408C287.106 373.797 287.309 374.29 287.309 374.886C287.309 375.278 287.219 375.635 287.037 375.956C286.855 376.274 286.588 376.528 286.236 376.719C285.883 376.906 285.452 377 284.94 377H282.196V370.455H283.202V376.062H284.94C285.338 376.062 285.665 375.957 285.92 375.747C286.176 375.537 286.304 375.267 286.304 374.938C286.304 374.591 286.176 374.308 285.92 374.089C285.665 373.871 285.338 373.761 284.94 373.761H283.065V372.824Z" fill="#697077"/>
<path d="M296.281 368.273H297.321V375.142H297.406L302.179 368.273H303.202V377H302.145V370.148H302.06L297.304 377H296.281V368.273ZM308.317 373.318V374.256H304.856V373.318H308.317ZM305.709 370.455V377H304.703V370.455H305.709ZM310.328 377.136C309.737 377.136 309.219 376.996 308.773 376.714C308.329 376.433 307.983 376.04 307.733 375.534C307.486 375.028 307.362 374.437 307.362 373.761C307.362 373.08 307.486 372.484 307.733 371.976C307.983 371.467 308.329 371.072 308.773 370.791C309.219 370.51 309.737 370.369 310.328 370.369C310.919 370.369 311.436 370.51 311.879 370.791C312.325 371.072 312.672 371.467 312.919 371.976C313.169 372.484 313.294 373.08 313.294 373.761C313.294 374.437 313.169 375.028 312.919 375.534C312.672 376.04 312.325 376.433 311.879 376.714C311.436 376.996 310.919 377.136 310.328 377.136ZM310.328 376.233C310.777 376.233 311.146 376.118 311.436 375.888C311.726 375.658 311.94 375.355 312.079 374.98C312.219 374.605 312.288 374.199 312.288 373.761C312.288 373.324 312.219 372.916 312.079 372.538C311.94 372.161 311.726 371.855 311.436 371.622C311.146 371.389 310.777 371.273 310.328 371.273C309.879 371.273 309.51 371.389 309.22 371.622C308.93 371.855 308.716 372.161 308.577 372.538C308.437 372.916 308.368 373.324 308.368 373.761C308.368 374.199 308.437 374.605 308.577 374.98C308.716 375.355 308.93 375.658 309.22 375.888C309.51 376.118 309.879 376.233 310.328 376.233ZM314.351 377V376.062H314.589C314.785 376.062 314.949 376.024 315.079 375.947C315.21 375.868 315.315 375.73 315.395 375.534C315.477 375.335 315.54 375.06 315.582 374.707C315.628 374.352 315.66 373.901 315.68 373.352L315.8 370.455H320.163V377H319.157V371.392H316.754L316.652 373.727C316.629 374.264 316.581 374.737 316.507 375.146C316.436 375.553 316.327 375.893 316.179 376.169C316.034 376.445 315.841 376.652 315.599 376.791C315.358 376.93 315.055 377 314.692 377H314.351ZM322.878 372.824H324.753C325.52 372.824 326.106 373.018 326.513 373.408C326.919 373.797 327.122 374.29 327.122 374.886C327.122 375.278 327.031 375.635 326.849 375.956C326.667 376.274 326.4 376.528 326.048 376.719C325.696 376.906 325.264 377 324.753 377H322.008V370.455H323.014V376.062H324.753C325.15 376.062 325.477 375.957 325.733 375.747C325.988 375.537 326.116 375.267 326.116 374.938C326.116 374.591 325.988 374.308 325.733 374.089C325.477 373.871 325.15 373.761 324.753 373.761H322.878V372.824Z" fill="#697077"/>
<path d="M342.481 377H341.373L344.578 368.273H345.669L348.873 377H347.765L345.157 369.653H345.089L342.481 377ZM342.89 373.591H347.356V374.528H342.89V373.591ZM350.096 377V370.455H352.772C353.477 370.455 354.037 370.614 354.451 370.932C354.866 371.25 355.074 371.67 355.074 372.193C355.074 372.591 354.956 372.899 354.72 373.118C354.484 373.334 354.181 373.48 353.812 373.557C354.054 373.591 354.288 373.676 354.515 373.812C354.745 373.949 354.936 374.136 355.086 374.375C355.237 374.611 355.312 374.901 355.312 375.244C355.312 375.58 355.227 375.879 355.056 376.143C354.886 376.408 354.642 376.616 354.324 376.77C354.005 376.923 353.625 377 353.181 377H350.096ZM351.051 376.08H353.181C353.528 376.08 353.799 375.997 353.995 375.832C354.191 375.668 354.289 375.443 354.289 375.159C354.289 374.821 354.191 374.555 353.995 374.362C353.799 374.166 353.528 374.068 353.181 374.068H351.051V376.08ZM351.051 373.199H352.772C353.042 373.199 353.274 373.162 353.467 373.088C353.66 373.011 353.808 372.903 353.91 372.764C354.015 372.622 354.068 372.455 354.068 372.261C354.068 371.986 353.953 371.77 353.723 371.614C353.493 371.455 353.176 371.375 352.772 371.375H351.051V373.199ZM360.874 370.455V371.392H357.84V377H356.835V370.455H360.874Z" fill="#697077"/>
<path d="M387.741 371H386.684C386.621 370.696 386.512 370.429 386.356 370.199C386.202 369.969 386.015 369.776 385.793 369.619C385.574 369.46 385.332 369.341 385.065 369.261C384.797 369.182 384.519 369.142 384.229 369.142C383.701 369.142 383.222 369.276 382.793 369.543C382.367 369.81 382.028 370.203 381.775 370.723C381.525 371.243 381.4 371.881 381.4 372.636C381.4 373.392 381.525 374.03 381.775 374.55C382.028 375.07 382.367 375.463 382.793 375.73C383.222 375.997 383.701 376.131 384.229 376.131C384.519 376.131 384.797 376.091 385.065 376.011C385.332 375.932 385.574 375.814 385.793 375.658C386.015 375.499 386.202 375.304 386.356 375.074C386.512 374.841 386.621 374.574 386.684 374.273H387.741C387.661 374.719 387.516 375.118 387.306 375.47C387.096 375.822 386.834 376.122 386.522 376.369C386.209 376.614 385.859 376.8 385.469 376.928C385.083 377.055 384.67 377.119 384.229 377.119C383.485 377.119 382.823 376.938 382.244 376.574C381.664 376.21 381.208 375.693 380.876 375.023C380.543 374.352 380.377 373.557 380.377 372.636C380.377 371.716 380.543 370.92 380.876 370.25C381.208 369.58 381.664 369.062 382.244 368.699C382.823 368.335 383.485 368.153 384.229 368.153C384.67 368.153 385.083 368.217 385.469 368.345C385.859 368.473 386.209 368.661 386.522 368.908C386.834 369.152 387.096 369.45 387.306 369.803C387.516 370.152 387.661 370.551 387.741 371ZM392.056 377.136C391.426 377.136 390.882 376.997 390.424 376.719C389.97 376.438 389.619 376.045 389.372 375.543C389.127 375.037 389.005 374.449 389.005 373.778C389.005 373.108 389.127 372.517 389.372 372.006C389.619 371.491 389.963 371.091 390.403 370.804C390.846 370.514 391.363 370.369 391.954 370.369C392.295 370.369 392.632 370.426 392.964 370.54C393.296 370.653 393.599 370.838 393.872 371.094C394.144 371.347 394.362 371.682 394.524 372.099C394.686 372.517 394.767 373.031 394.767 373.642V374.068H389.721V373.199H393.744C393.744 372.83 393.67 372.5 393.522 372.21C393.377 371.92 393.17 371.692 392.9 371.524C392.633 371.357 392.318 371.273 391.954 371.273C391.554 371.273 391.207 371.372 390.914 371.571C390.625 371.767 390.402 372.023 390.245 372.338C390.089 372.653 390.011 372.991 390.011 373.352V373.932C390.011 374.426 390.096 374.845 390.267 375.189C390.44 375.53 390.68 375.79 390.987 375.969C391.294 376.145 391.65 376.233 392.056 376.233C392.321 376.233 392.559 376.196 392.772 376.122C392.988 376.045 393.174 375.932 393.331 375.781C393.487 375.628 393.608 375.437 393.693 375.21L394.664 375.483C394.562 375.812 394.39 376.102 394.149 376.352C393.907 376.599 393.609 376.793 393.254 376.932C392.899 377.068 392.5 377.136 392.056 377.136ZM400.677 373.267V374.205H397.063V373.267H400.677ZM397.302 370.455V377H396.296V370.455H397.302ZM401.444 370.455V377H400.438V370.455H401.444Z" fill="#697077"/>
<path d="M428.199 372.636C428.199 373.557 428.033 374.352 427.7 375.023C427.368 375.693 426.912 376.21 426.332 376.574C425.753 376.938 425.091 377.119 424.347 377.119C423.602 377.119 422.94 376.938 422.361 376.574C421.781 376.21 421.325 375.693 420.993 375.023C420.66 374.352 420.494 373.557 420.494 372.636C420.494 371.716 420.66 370.92 420.993 370.25C421.325 369.58 421.781 369.062 422.361 368.699C422.94 368.335 423.602 368.153 424.347 368.153C425.091 368.153 425.753 368.335 426.332 368.699C426.912 369.062 427.368 369.58 427.7 370.25C428.033 370.92 428.199 371.716 428.199 372.636ZM427.176 372.636C427.176 371.881 427.05 371.243 426.797 370.723C426.547 370.203 426.207 369.81 425.778 369.543C425.352 369.276 424.875 369.142 424.347 369.142C423.818 369.142 423.339 369.276 422.91 369.543C422.484 369.81 422.145 370.203 421.892 370.723C421.642 371.243 421.517 371.881 421.517 372.636C421.517 373.392 421.642 374.03 421.892 374.55C422.145 375.07 422.484 375.463 422.91 375.73C423.339 375.997 423.818 376.131 424.347 376.131C424.875 376.131 425.352 375.997 425.778 375.73C426.207 375.463 426.547 375.07 426.797 374.55C427.05 374.03 427.176 373.392 427.176 372.636ZM429.839 377V370.455H430.845V373.301H431.51L433.862 370.455H435.158L432.516 373.608L435.192 377H433.896L431.748 374.239H430.845V377H429.839ZM435.91 371.392V370.455H441.228V371.392H439.08V377H438.074V371.392H435.91Z" fill="#697077"/>
<path d="M460.208 377V368.273H461.265V372.159H465.918V368.273H466.975V377H465.918V373.097H461.265V377H460.208ZM471.614 377.136C471.023 377.136 470.504 376.996 470.058 376.714C469.615 376.433 469.269 376.04 469.019 375.534C468.771 375.028 468.648 374.437 468.648 373.761C468.648 373.08 468.771 372.484 469.019 371.976C469.269 371.467 469.615 371.072 470.058 370.791C470.504 370.51 471.023 370.369 471.614 370.369C472.205 370.369 472.722 370.51 473.165 370.791C473.611 371.072 473.957 371.467 474.205 371.976C474.455 372.484 474.58 373.08 474.58 373.761C474.58 374.437 474.455 375.028 474.205 375.534C473.957 376.04 473.611 376.433 473.165 376.714C472.722 376.996 472.205 377.136 471.614 377.136ZM471.614 376.233C472.063 376.233 472.432 376.118 472.722 375.888C473.011 375.658 473.226 375.355 473.365 374.98C473.504 374.605 473.574 374.199 473.574 373.761C473.574 373.324 473.504 372.916 473.365 372.538C473.226 372.161 473.011 371.855 472.722 371.622C472.432 371.389 472.063 371.273 471.614 371.273C471.165 371.273 470.796 371.389 470.506 371.622C470.216 371.855 470.002 372.161 469.862 372.538C469.723 372.916 469.653 373.324 469.653 373.761C469.653 374.199 469.723 374.605 469.862 374.98C470.002 375.355 470.216 375.658 470.506 375.888C470.796 376.118 471.165 376.233 471.614 376.233ZM480.052 377V371.375H478.314C477.922 371.375 477.613 371.466 477.389 371.648C477.165 371.83 477.052 372.08 477.052 372.398C477.052 372.71 477.153 372.956 477.355 373.135C477.559 373.314 477.839 373.403 478.194 373.403H480.308V374.341H478.194C477.751 374.341 477.369 374.263 477.048 374.107C476.727 373.95 476.48 373.727 476.307 373.438C476.133 373.145 476.047 372.798 476.047 372.398C476.047 371.994 476.138 371.648 476.319 371.358C476.501 371.068 476.761 370.845 477.099 370.689C477.44 370.533 477.845 370.455 478.314 370.455H481.007V377H480.052ZM475.689 377L477.547 373.744H478.638L476.78 377H475.689Z" fill="#697077"/>
<path d="M499.395 379.114V376.062H499.957C500.15 375.886 500.332 375.638 500.503 375.317C500.676 374.993 500.822 374.561 500.942 374.021C501.064 373.479 501.145 372.79 501.184 371.955L501.372 368.273H506.554V376.062H507.559V379.097H506.554V377H500.4V379.114H499.395ZM501.219 376.062H505.548V369.21H502.327L502.19 371.955C502.156 372.591 502.096 373.168 502.011 373.685C501.926 374.199 501.817 374.655 501.683 375.053C501.55 375.447 501.395 375.784 501.219 376.062ZM511.764 377.136C511.134 377.136 510.59 376.997 510.132 376.719C509.678 376.438 509.327 376.045 509.08 375.543C508.835 375.037 508.713 374.449 508.713 373.778C508.713 373.108 508.835 372.517 509.08 372.006C509.327 371.491 509.671 371.091 510.111 370.804C510.554 370.514 511.071 370.369 511.662 370.369C512.003 370.369 512.34 370.426 512.672 370.54C513.004 370.653 513.307 370.838 513.58 371.094C513.852 371.347 514.07 371.682 514.232 372.099C514.394 372.517 514.475 373.031 514.475 373.642V374.068H509.429V373.199H513.452C513.452 372.83 513.378 372.5 513.23 372.21C513.085 371.92 512.878 371.692 512.608 371.524C512.341 371.357 512.026 371.273 511.662 371.273C511.262 371.273 510.915 371.372 510.622 371.571C510.333 371.767 510.11 372.023 509.953 372.338C509.797 372.653 509.719 372.991 509.719 373.352V373.932C509.719 374.426 509.804 374.845 509.975 375.189C510.148 375.53 510.388 375.79 510.695 375.969C511.002 376.145 511.358 376.233 511.764 376.233C512.029 376.233 512.267 376.196 512.48 376.122C512.696 376.045 512.882 375.932 513.039 375.781C513.195 375.628 513.316 375.437 513.401 375.21L514.372 375.483C514.27 375.812 514.098 376.102 513.857 376.352C513.615 376.599 513.317 376.793 512.962 376.932C512.607 377.068 512.208 377.136 511.764 377.136ZM516.004 377V370.455H517.01V373.301H517.675L520.027 370.455H521.323L518.681 373.608L521.357 377H520.061L517.914 374.239H517.01V377H516.004Z" fill="#697077"/>
</svg>
