<svg width="24.000000" height="24.000000" viewBox="0 0 24 24" fill="none" xmlns="http://www.w3.org/2000/svg" xmlns:xlink="http://www.w3.org/1999/xlink">
	<desc>
			Created with Pixso.
	</desc>
	<defs>
		<clipPath id="clip11_7048">
			<rect id="icon / jam-icons / outline &amp; logos / linkedin" rx="-0.500000" width="23.000000" height="23.000000" transform="translate(0.500000 0.500000)" fill="white" fill-opacity="0"/>
		</clipPath>
	</defs>
	<rect id="icon / jam-icons / outline &amp; logos / linkedin" rx="-0.500000" width="23.000000" height="23.000000" transform="translate(0.500000 0.500000)" fill="#FFFFFF" fill-opacity="0"/>
	<g clip-path="url(#clip11_7048)">
		<path id="Vector" d="M22 13.67L22 21.02L17.71 21.02L17.71 14.16C17.71 12.44 17.09 11.26 15.54 11.26C14.35 11.26 13.65 12.06 13.34 12.82C13.22 13.1 13.2 13.48 13.2 13.86L13.2 21.02L8.91 21.02C8.91 21.02 8.96 9.41 8.91 8.2L13.2 8.2L13.2 10.02L13.17 10.06L13.2 10.06L13.2 10.02C13.76 9.15 14.78 7.9 17.06 7.9C19.88 7.9 22 9.73 22 13.67ZM4.42 2.02C2.95 2.02 2 2.98 2 4.24C2 5.47 2.93 6.45 4.37 6.45L4.39 6.45C5.89 6.45 6.82 5.47 6.82 4.24C6.79 2.98 5.89 2.02 4.42 2.02L4.42 2.02ZM2.25 21.02L6.54 21.02L6.54 8.2L2.25 8.2L2.25 21.02Z" fill="#FFFFFF" fill-opacity="1.000000" fill-rule="nonzero"/>
	</g>
</svg>
