<svg width="24" height="24" viewBox="0 0 24 24" fill="none" xmlns="http://www.w3.org/2000/svg">
<path d="M13.4004 11.4V6.40002C13.4004 6.13481 13.295 5.88045 13.1075 5.69292C12.92 5.50538 12.6656 5.40002 12.4004 5.40002C12.1352 5.40002 11.8808 5.50538 11.6933 5.69292C11.5057 5.88045 11.4004 6.13481 11.4004 6.40002V11.4H6.40039C6.13517 11.4 5.88082 11.5054 5.69328 11.6929C5.50575 11.8805 5.40039 12.1348 5.40039 12.4C5.40039 12.6652 5.50575 12.9196 5.69328 13.1071C5.88082 13.2947 6.13517 13.4 6.40039 13.4H11.4004V18.4C11.4004 18.6652 11.5057 18.9196 11.6933 19.1071C11.8808 19.2947 12.1352 19.4 12.4004 19.4C12.6656 19.4 12.92 19.2947 13.1075 19.1071C13.295 18.9196 13.4004 18.6652 13.4004 18.4V13.4H18.4004C18.6656 13.4 18.92 13.2947 19.1075 13.1071C19.295 12.9196 19.4004 12.6652 19.4004 12.4C19.4004 12.1348 19.295 11.8805 19.1075 11.6929C18.92 11.5054 18.6656 11.4 18.4004 11.4H13.4004Z" fill="#21272A"/>
</svg>
