<svg width="49" height="48" viewBox="0 0 49 48" fill="none" xmlns="http://www.w3.org/2000/svg">
<path d="M18.75 34H10.75C9.68913 34 8.67172 33.5786 7.92157 32.8284C7.17143 32.0783 6.75 31.0609 6.75 30V8C6.75 6.93913 7.17143 5.92172 7.92157 5.17157C8.67172 4.42143 9.68913 4 10.75 4H26.75C27.8109 4 28.8283 4.42143 29.5784 5.17157C30.3286 5.92172 30.75 6.93913 30.75 8V14H36.75L42.75 20V40C42.75 41.0609 42.3286 42.0783 41.5784 42.8284C40.8283 43.5786 39.8109 44 38.75 44H22.75C21.6891 44 20.6717 43.5786 19.9216 42.8284C19.1714 42.0783 18.75 41.0609 18.75 40V34ZM18.75 30V18C18.75 16.9391 19.1714 15.9217 19.9216 15.1716C20.6717 14.4214 21.6891 14 22.75 14H26.75V8H10.75V30H18.75ZM35.094 18H22.75V40H38.75V21.656L35.094 18Z" fill="#C1C7CD"/>
</svg>
